<?xml version="1.0" encoding="utf-8"?>
<!-- Generator: Adobe Illustrator 27.5.0, SVG Export Plug-In . SVG Version: 6.00 Build 0)  -->
<svg version="1.1" xmlns="http://www.w3.org/2000/svg" xmlns:xlink="http://www.w3.org/1999/xlink" x="0px" y="0px"
	 viewBox="0 0 2200 2200" style="enable-background:new 0 0 2200 2200;" xml:space="preserve">
<g id="background">
	<rect style="fill:#FFFFFF;" width="2200" height="2200"/>
</g>
<g id="Objects">
	<g>
		<path style="fill:#EDAF00;" d="M205.898,1698.159c-2.714-7.933-4.194-16.437-4.194-25.292V472.901
			c0-43.027,34.873-77.901,77.901-77.901h525.452c25.499,0,50.116,9.387,69.15,26.356l141.766,126.485
			c19.034,16.969,43.637,26.356,69.15,26.356h591.503c43.027,0,77.901,34.873,77.901,77.901v101.569L205.898,1698.159z"/>
		<path style="fill:#E8E8E8;" d="M333,1275V703.023c0-17.255,13.985-31.241,31.241-31.241h1246.04
			c17.255,0,31.241,13.985,31.241,31.241v493.047L333,1275z"/>
		<path style="fill:#FFFFFF;" d="M361,1311V739.023c0-17.255,13.985-31.241,31.241-31.241h1246.04
			c17.255,0,31.241,13.985,31.241,31.241v493.047L361,1311z"/>
		<path style="fill:#FFCE00;" d="M1995.405,852.428l-248.311,893.404c-9.719,34.969-41.561,59.168-77.856,59.168H282.56
			c-53.33,0-92.034-50.749-77.929-102.179l207.051-754.959c9.28-33.839,40.038-57.297,75.126-57.297h665.039
			c18.541,0,36.744-4.963,52.719-14.374l183.59-108.15c15.975-9.411,34.178-14.374,52.719-14.374h479.475
			C1971.872,753.667,2009.202,802.788,1995.405,852.428z"/>
	</g>
</g>
</svg>
