<svg xmlns="http://www.w3.org/2000/svg" xmlns:xlink="http://www.w3.org/1999/xlink" width="1920" zoomAndPan="magnify" viewBox="0 0 1440 809.999993" height="1080" preserveAspectRatio="xMidYMid meet" version="1.0"><defs><clipPath id="630336fbd0"><path d="M 1003.050781 535.632812 L 1168.800781 535.632812 L 1168.800781 701.382812 L 1003.050781 701.382812 Z M 1003.050781 535.632812 " clip-rule="nonzero"/></clipPath><clipPath id="8819864f88"><path d="M 1007 211.601562 L 1173 211.601562 L 1173 376.601562 L 1007 376.601562 Z M 1007 211.601562 " clip-rule="nonzero"/></clipPath><clipPath id="04258923f8"><path d="M 284.007812 641 L 329 641 L 329 686.382812 L 284.007812 686.382812 Z M 284.007812 641 " clip-rule="nonzero"/></clipPath><clipPath id="e6afa3ecd7"><path d="M 344 641 L 389 641 L 389 686.382812 L 344 686.382812 Z M 344 641 " clip-rule="nonzero"/></clipPath><clipPath id="54f5deb8ce"><path d="M 284.007812 581 L 329 581 L 329 627 L 284.007812 627 Z M 284.007812 581 " clip-rule="nonzero"/></clipPath><clipPath id="ef0bbb039f"><path d="M 328 535.632812 L 434.757812 535.632812 L 434.757812 642 L 328 642 Z M 328 535.632812 " clip-rule="nonzero"/></clipPath></defs><path fill="#e3e1df" d="M 304.597656 236.230469 C 318.722656 222.109375 341.53125 221.964844 355.828125 235.804688 L 356.257812 236.230469 C 359.695312 239.664062 365.242188 239.699219 368.71875 236.332031 L 368.824219 236.230469 C 383.089844 221.964844 406.21875 221.964844 420.484375 236.230469 C 434.605469 250.351562 434.75 273.164062 420.90625 287.460938 L 420.484375 287.890625 C 417.050781 291.324219 417.015625 296.871094 420.382812 300.351562 L 420.484375 300.457031 C 434.75 314.722656 434.75 337.851562 420.484375 352.117188 C 406.363281 366.238281 383.550781 366.378906 369.253906 352.539062 L 368.824219 352.113281 C 365.390625 348.679688 359.839844 348.644531 356.363281 352.011719 L 356.257812 352.117188 C 341.992188 366.378906 318.863281 366.378906 304.597656 352.117188 C 290.476562 337.992188 290.335938 315.183594 304.175781 300.886719 L 304.601562 300.457031 C 308.035156 297.019531 308.070312 291.472656 304.703125 287.996094 L 304.597656 287.890625 C 290.335938 273.625 290.335938 250.496094 304.597656 236.230469 Z M 411.640625 296.734375 L 365.101562 343.273438 C 364.222656 344.152344 364.203125 345.566406 365.042969 346.46875 L 365.101562 346.53125 C 378.851562 360.28125 401.148438 360.28125 414.898438 346.53125 C 428.652344 332.777344 428.652344 310.484375 414.898438 296.734375 C 414 295.832031 412.542969 295.832031 411.640625 296.734375 Z M 310.183594 296.730469 C 296.433594 310.484375 296.433594 332.777344 310.183594 346.53125 C 323.9375 360.28125 346.230469 360.28125 359.980469 346.53125 C 360.882812 345.628906 360.882812 344.171875 359.980469 343.273438 L 313.441406 296.730469 C 312.5625 295.851562 311.148438 295.832031 310.246094 296.671875 Z M 339.273438 267.644531 L 336.015625 270.902344 C 323.160156 283.753906 323.160156 304.589844 336.015625 317.441406 L 339.273438 320.699219 C 352.125 333.550781 372.960938 333.550781 385.8125 320.699219 L 389.070312 317.441406 C 401.921875 304.589844 401.921875 283.753906 389.070312 270.902344 L 385.8125 267.644531 C 372.960938 254.792969 352.125 254.792969 339.273438 267.644531 Z M 365.101562 241.816406 C 364.203125 242.714844 364.203125 244.171875 365.101562 245.074219 L 411.640625 291.613281 C 412.519531 292.492188 413.933594 292.511719 414.835938 291.671875 L 414.898438 291.613281 C 428.652344 277.863281 428.652344 255.566406 414.898438 241.816406 C 401.148438 228.0625 378.851562 228.0625 365.101562 241.816406 Z M 310.183594 241.816406 C 296.433594 255.566406 296.433594 277.863281 310.183594 291.613281 C 311.082031 292.511719 312.542969 292.511719 313.441406 291.613281 L 359.980469 245.074219 C 360.859375 244.191406 360.882812 242.78125 360.042969 241.878906 L 359.980469 241.816406 C 346.230469 228.0625 323.9375 228.0625 310.183594 241.816406 Z M 310.183594 241.816406 " fill-opacity="1" fill-rule="evenodd"/><g clip-path="url(#630336fbd0)"><path fill="#e3e1df" d="M 1085.800781 535.632812 C 1040.175781 535.632812 1003.054688 572.753906 1003.054688 618.378906 L 1003.054688 700.539062 C 1003.054688 700.605469 1003.074219 700.664062 1003.09375 700.722656 C 1003.097656 700.730469 1003.09375 700.738281 1003.09375 700.746094 C 1003.097656 700.75 1003.097656 700.75 1003.097656 700.753906 C 1003.136719 700.851562 1003.207031 700.929688 1003.289062 700.992188 C 1003.304688 701.007812 1003.324219 701.019531 1003.34375 701.03125 C 1003.429688 701.082031 1003.527344 701.121094 1003.640625 701.121094 L 1040.089844 701.121094 C 1040.105469 701.125 1040.121094 701.136719 1040.140625 701.136719 C 1040.160156 701.136719 1040.179688 701.125 1040.199219 701.121094 L 1058.316406 701.121094 C 1058.34375 701.125 1058.371094 701.136719 1058.398438 701.136719 C 1058.417969 701.136719 1058.429688 701.125 1058.449219 701.121094 L 1076.558594 701.121094 C 1076.570312 701.125 1076.578125 701.132812 1076.589844 701.132812 C 1076.613281 701.136719 1076.636719 701.136719 1076.660156 701.136719 C 1076.6875 701.136719 1076.714844 701.125 1076.742188 701.121094 L 1094.859375 701.121094 C 1094.886719 701.125 1094.914062 701.136719 1094.941406 701.136719 C 1094.964844 701.136719 1094.988281 701.136719 1095.015625 701.132812 C 1095.023438 701.132812 1095.035156 701.125 1095.042969 701.121094 L 1113.152344 701.121094 C 1113.171875 701.125 1113.183594 701.136719 1113.203125 701.136719 C 1113.230469 701.136719 1113.257812 701.125 1113.285156 701.121094 L 1131.40625 701.121094 C 1131.425781 701.125 1131.441406 701.136719 1131.460938 701.136719 C 1131.480469 701.136719 1131.496094 701.125 1131.515625 701.121094 L 1167.964844 701.121094 C 1168.074219 701.121094 1168.171875 701.082031 1168.257812 701.03125 C 1168.277344 701.019531 1168.296875 701.007812 1168.316406 700.992188 C 1168.398438 700.929688 1168.464844 700.851562 1168.503906 700.753906 C 1168.503906 700.75 1168.507812 700.75 1168.507812 700.746094 C 1168.511719 700.738281 1168.507812 700.730469 1168.507812 700.722656 C 1168.527344 700.664062 1168.546875 700.605469 1168.546875 700.539062 L 1168.546875 618.378906 C 1168.546875 572.753906 1131.425781 535.632812 1085.800781 535.632812 Z M 1005.164062 699.957031 L 1022.773438 684.171875 L 1035.328125 684.171875 L 1021.632812 699.957031 Z M 1079.761719 637.738281 L 1081.144531 637.738281 L 1080.542969 639.355469 L 1078.761719 639.355469 Z M 1078.171875 636.574219 L 1079.394531 635.160156 L 1079.988281 635.160156 L 1079.113281 636.574219 Z M 1080.484375 636.574219 L 1081.359375 635.160156 L 1082.101562 635.160156 L 1081.578125 636.574219 Z M 1082.386719 637.738281 L 1083.867188 637.738281 L 1083.667969 639.355469 L 1081.785156 639.355469 Z M 1082.820312 636.574219 L 1083.347656 635.160156 L 1084.1875 635.160156 L 1084.011719 636.574219 Z M 1084.3125 643.609375 L 1087.289062 643.609375 L 1087.582031 645.984375 L 1084.019531 645.984375 Z M 1086.558594 637.738281 L 1086.761719 639.355469 L 1084.839844 639.355469 L 1085.042969 637.738281 Z M 1085.1875 636.574219 L 1085.363281 635.160156 L 1086.242188 635.160156 L 1086.414062 636.574219 Z M 1086.90625 640.519531 L 1087.144531 642.445312 L 1084.457031 642.445312 L 1084.695312 640.519531 Z M 1087.414062 635.160156 L 1088.257812 635.160156 L 1088.78125 636.574219 L 1087.589844 636.574219 Z M 1089.214844 637.738281 L 1089.816406 639.355469 L 1087.933594 639.355469 L 1087.734375 637.738281 Z M 1089.5 635.160156 L 1090.242188 635.160156 L 1091.117188 636.574219 L 1090.027344 636.574219 Z M 1091.839844 637.738281 L 1092.84375 639.355469 L 1091.058594 639.355469 L 1090.460938 637.738281 Z M 1092.492188 636.574219 L 1091.617188 635.160156 L 1092.207031 635.160156 L 1093.433594 636.574219 Z M 1082.917969 633.996094 C 1082.917969 633.996094 1082.914062 633.996094 1082.914062 633.996094 L 1077.804688 633.996094 L 1077.804688 626 C 1077.804688 621.589844 1081.394531 618.003906 1085.800781 618.003906 C 1090.210938 618.003906 1093.796875 621.589844 1093.796875 626 L 1093.796875 633.996094 Z M 1077.851562 635.160156 L 1076.625 636.574219 L 1075.871094 636.574219 L 1077.445312 635.160156 Z M 1094.15625 635.160156 L 1095.730469 636.574219 L 1094.976562 636.574219 L 1093.75 635.160156 Z M 1094.960938 634.316406 L 1094.960938 626 C 1094.960938 620.949219 1090.851562 616.835938 1085.800781 616.835938 C 1080.75 616.835938 1076.640625 620.949219 1076.640625 626 L 1076.640625 634.316406 L 1074.933594 635.847656 L 1074.933594 625.707031 C 1074.933594 619.714844 1079.808594 614.839844 1085.800781 614.839844 C 1091.792969 614.839844 1096.667969 619.714844 1096.667969 625.707031 L 1096.667969 635.847656 Z M 1085.800781 610.277344 C 1077.460938 610.277344 1070.679688 617.058594 1070.679688 625.398438 L 1070.679688 639.660156 L 1068.359375 641.738281 L 1068.359375 625.003906 C 1068.359375 615.386719 1076.183594 607.566406 1085.800781 607.566406 C 1095.417969 607.566406 1103.242188 615.386719 1103.242188 625.003906 L 1103.242188 641.738281 L 1100.925781 639.660156 L 1100.925781 625.398438 C 1100.925781 617.058594 1094.140625 610.277344 1085.800781 610.277344 Z M 1085.800781 613.675781 C 1079.164062 613.675781 1073.769531 619.070312 1073.769531 625.707031 L 1073.769531 636.890625 L 1071.84375 638.617188 L 1071.84375 625.398438 C 1071.84375 617.703125 1078.105469 611.441406 1085.800781 611.441406 C 1093.496094 611.441406 1099.757812 617.703125 1099.757812 625.398438 L 1099.757812 638.617188 L 1097.835938 636.890625 L 1097.835938 625.707031 C 1097.835938 619.070312 1092.4375 613.675781 1085.800781 613.675781 Z M 1069.320312 642.445312 L 1071.46875 640.519531 L 1073.199219 640.519531 L 1071.53125 642.445312 Z M 1070.519531 643.609375 L 1068.460938 645.984375 L 1065.371094 645.984375 L 1068.019531 643.609375 Z M 1072.769531 639.355469 L 1074.570312 637.738281 L 1075.613281 637.738281 L 1074.210938 639.355469 Z M 1097.03125 637.738281 L 1098.832031 639.355469 L 1097.390625 639.355469 L 1095.988281 637.738281 Z M 1100.136719 640.519531 L 1102.28125 642.445312 L 1100.070312 642.445312 L 1098.402344 640.519531 Z M 1103.582031 643.609375 L 1106.230469 645.984375 L 1103.140625 645.984375 L 1101.082031 643.609375 Z M 1104.40625 642.785156 L 1104.40625 625.003906 C 1104.40625 614.746094 1096.058594 606.398438 1085.800781 606.398438 C 1075.542969 606.398438 1067.195312 614.746094 1067.195312 625.003906 L 1067.195312 642.785156 L 1064.445312 645.246094 L 1064.445312 624.796875 C 1064.445312 613.019531 1074.027344 603.441406 1085.800781 603.441406 C 1097.574219 603.441406 1107.15625 613.019531 1107.15625 624.796875 L 1107.15625 645.246094 Z M 1067.449219 647.148438 L 1064.761719 650.25 L 1060.613281 650.25 L 1063.894531 647.308594 C 1064.039062 647.300781 1064.171875 647.246094 1064.269531 647.148438 Z M 1068.992188 647.148438 L 1072.554688 647.148438 L 1070.636719 650.25 L 1066.304688 650.25 Z M 1070.003906 645.984375 L 1072.066406 643.609375 L 1074.75 643.609375 L 1073.277344 645.984375 Z M 1073.078125 642.445312 L 1074.746094 640.519531 L 1076.664062 640.519531 L 1075.472656 642.445312 Z M 1075.757812 639.355469 L 1077.160156 637.738281 L 1078.390625 637.738281 L 1077.386719 639.355469 Z M 1078.039062 640.519531 L 1080.109375 640.519531 L 1079.394531 642.445312 L 1076.84375 642.445312 Z M 1080.203125 643.609375 L 1083.140625 643.609375 L 1082.84375 645.984375 L 1079.320312 645.984375 Z M 1080.636719 642.445312 L 1081.351562 640.519531 L 1083.523438 640.519531 L 1083.285156 642.445312 Z M 1083.875 647.148438 L 1087.726562 647.148438 L 1088.113281 650.25 L 1083.488281 650.25 Z M 1088.082031 640.519531 L 1090.25 640.519531 L 1090.964844 642.445312 L 1088.320312 642.445312 Z M 1091.398438 643.609375 L 1092.28125 645.984375 L 1088.757812 645.984375 L 1088.464844 643.609375 Z M 1092.210938 642.445312 L 1091.492188 640.519531 L 1093.566406 640.519531 L 1094.757812 642.445312 Z M 1094.214844 639.355469 L 1093.214844 637.738281 L 1094.441406 637.738281 L 1095.84375 639.355469 Z M 1096.855469 640.519531 L 1098.527344 642.445312 L 1096.128906 642.445312 L 1094.9375 640.519531 Z M 1099.539062 643.609375 L 1101.597656 645.984375 L 1098.324219 645.984375 L 1096.851562 643.609375 Z M 1102.609375 647.148438 L 1105.296875 650.25 L 1100.96875 650.25 L 1099.046875 647.148438 Z M 1104.152344 647.148438 L 1107.335938 647.148438 C 1107.433594 647.246094 1107.5625 647.300781 1107.707031 647.308594 L 1110.988281 650.25 L 1106.84375 650.25 Z M 1108.320312 646.292969 L 1108.320312 624.796875 C 1108.320312 612.378906 1098.21875 602.273438 1085.800781 602.273438 C 1073.382812 602.273438 1063.28125 612.378906 1063.28125 624.796875 L 1063.28125 646.292969 L 1059.5625 649.625 L 1059.5625 624.035156 C 1059.5625 609.570312 1071.335938 597.796875 1085.800781 597.796875 C 1100.269531 597.796875 1112.039062 609.570312 1112.039062 624.035156 L 1112.039062 649.625 Z M 1063.75 651.414062 L 1058.480469 657.484375 L 1052.542969 657.484375 L 1059.3125 651.414062 Z M 1065.292969 651.414062 L 1069.914062 651.414062 L 1066.148438 657.484375 L 1060.027344 657.484375 Z M 1071.285156 651.414062 L 1076.054688 651.414062 L 1073.796875 657.484375 L 1067.523438 657.484375 Z M 1072.007812 650.25 L 1073.925781 647.148438 L 1077.640625 647.148438 L 1076.488281 650.25 Z M 1074.652344 645.984375 L 1076.121094 643.609375 L 1078.957031 643.609375 L 1078.074219 645.984375 Z M 1078.886719 647.148438 L 1082.699219 647.148438 L 1082.316406 650.25 L 1077.734375 650.25 Z M 1083.34375 651.414062 L 1088.257812 651.414062 L 1089.011719 657.484375 L 1082.59375 657.484375 Z M 1088.902344 647.148438 L 1092.714844 647.148438 L 1093.867188 650.25 L 1089.289062 650.25 Z M 1093.527344 645.984375 L 1092.644531 643.609375 L 1095.480469 643.609375 L 1096.953125 645.984375 Z M 1097.675781 647.148438 L 1099.59375 650.25 L 1095.113281 650.25 L 1093.960938 647.148438 Z M 1100.316406 651.414062 L 1104.082031 657.484375 L 1097.804688 657.484375 L 1095.546875 651.414062 Z M 1101.691406 651.414062 L 1106.308594 651.414062 L 1111.574219 657.484375 L 1105.453125 657.484375 Z M 1107.855469 651.414062 L 1112.289062 651.414062 L 1119.058594 657.484375 L 1113.121094 657.484375 Z M 1113.203125 650.671875 L 1113.203125 624.035156 C 1113.203125 608.925781 1100.910156 596.632812 1085.800781 596.632812 C 1070.691406 596.632812 1058.398438 608.925781 1058.398438 624.035156 L 1058.398438 650.671875 L 1051.601562 656.761719 L 1051.601562 623.285156 C 1051.601562 604.429688 1066.945312 589.089844 1085.800781 589.089844 C 1104.65625 589.089844 1120 604.429688 1120 623.285156 L 1120 656.761719 Z M 1057.46875 658.652344 L 1050.0625 667.1875 L 1041.71875 667.1875 L 1051.242188 658.652344 Z M 1059.015625 658.652344 L 1065.425781 658.652344 L 1060.136719 667.1875 L 1051.609375 667.1875 Z M 1066.800781 658.652344 L 1073.363281 658.652344 L 1070.1875 667.1875 L 1061.507812 667.1875 Z M 1074.609375 658.652344 L 1081.273438 658.652344 L 1080.214844 667.1875 L 1071.433594 667.1875 Z M 1075.042969 657.484375 L 1077.300781 651.414062 L 1082.171875 651.414062 L 1081.417969 657.484375 Z M 1082.449219 658.652344 L 1089.15625 658.652344 L 1090.214844 667.1875 L 1081.386719 667.1875 Z M 1090.183594 657.484375 L 1089.433594 651.414062 L 1094.300781 651.414062 L 1096.558594 657.484375 Z M 1096.992188 658.652344 L 1100.167969 667.1875 L 1091.390625 667.1875 L 1090.328125 658.652344 Z M 1098.238281 658.652344 L 1104.804688 658.652344 L 1110.09375 667.1875 L 1101.414062 667.1875 Z M 1106.175781 658.652344 L 1112.585938 658.652344 L 1119.996094 667.1875 L 1111.46875 667.1875 Z M 1114.132812 658.652344 L 1120.359375 658.652344 L 1129.882812 667.1875 L 1121.539062 667.1875 Z M 1121.164062 657.804688 L 1121.164062 623.285156 C 1121.164062 603.785156 1105.300781 587.921875 1085.800781 587.921875 C 1066.300781 587.921875 1050.4375 603.785156 1050.4375 623.285156 L 1050.4375 657.804688 L 1040.8125 666.433594 L 1040.8125 622.199219 C 1040.8125 597.390625 1060.996094 577.210938 1085.800781 577.210938 C 1110.609375 577.210938 1130.789062 597.390625 1130.789062 622.199219 L 1130.789062 666.433594 Z M 1049.050781 668.355469 L 1036.339844 683.003906 L 1024.074219 683.003906 L 1040.417969 668.355469 Z M 1050.597656 668.355469 L 1059.414062 668.355469 L 1050.332031 683.003906 L 1037.882812 683.003906 Z M 1060.785156 668.355469 L 1069.753906 668.355469 L 1064.304688 683.003906 L 1051.703125 683.003906 Z M 1071 668.355469 L 1080.070312 668.355469 L 1078.25 683.003906 L 1065.550781 683.003906 Z M 1081.242188 668.355469 L 1090.359375 668.355469 L 1092.175781 683.003906 L 1079.425781 683.003906 Z M 1091.535156 668.355469 L 1100.601562 668.355469 L 1106.050781 683.003906 L 1093.351562 683.003906 Z M 1101.847656 668.355469 L 1110.816406 668.355469 L 1119.898438 683.003906 L 1107.296875 683.003906 Z M 1112.191406 668.355469 L 1121.007812 668.355469 L 1133.71875 683.003906 L 1121.269531 683.003906 Z M 1122.550781 668.355469 L 1131.183594 668.355469 L 1147.53125 683.003906 L 1135.265625 683.003906 Z M 1131.957031 667.480469 L 1131.957031 622.199219 C 1131.957031 596.75 1111.25 576.042969 1085.800781 576.042969 C 1060.351562 576.042969 1039.644531 596.75 1039.644531 622.199219 L 1039.644531 667.480469 L 1023.238281 682.1875 L 1023.238281 620.441406 C 1023.238281 585.941406 1051.300781 557.875 1085.800781 557.875 C 1120.300781 557.875 1148.367188 585.941406 1148.367188 620.441406 L 1148.367188 682.1875 Z M 1039.824219 699.957031 L 1023.175781 699.957031 L 1036.871094 684.171875 L 1049.609375 684.171875 Z M 1058 699.957031 L 1041.195312 699.957031 L 1050.980469 684.171875 L 1063.871094 684.171875 Z M 1076.148438 699.957031 L 1059.246094 699.957031 L 1065.117188 684.171875 L 1078.105469 684.171875 Z M 1077.320312 699.957031 L 1079.28125 684.171875 L 1092.320312 684.171875 L 1094.28125 699.957031 Z M 1095.457031 699.957031 L 1093.496094 684.171875 L 1106.484375 684.171875 L 1112.359375 699.957031 Z M 1113.601562 699.957031 L 1107.730469 684.171875 L 1120.621094 684.171875 L 1130.40625 699.957031 Z M 1131.777344 699.957031 L 1121.992188 684.171875 L 1134.730469 684.171875 L 1148.425781 699.957031 Z M 1149.972656 699.957031 L 1136.277344 684.171875 L 1148.832031 684.171875 L 1166.441406 699.957031 Z M 1167.378906 699.234375 L 1149.53125 683.234375 L 1149.53125 680.855469 L 1149.632812 680.855469 L 1149.632812 631.164062 L 1149.53125 631.164062 L 1149.53125 620.441406 C 1149.53125 585.300781 1120.941406 556.710938 1085.800781 556.710938 C 1050.660156 556.710938 1022.070312 585.300781 1022.070312 620.441406 L 1022.070312 683.234375 L 1004.222656 699.234375 L 1004.222656 618.378906 C 1004.222656 573.394531 1040.820312 536.800781 1085.800781 536.800781 C 1130.785156 536.800781 1167.378906 573.394531 1167.378906 618.378906 Z M 1089.894531 626.511719 L 1091.585938 626.765625 L 1089.894531 627.023438 C 1087.914062 627.324219 1086.359375 628.878906 1086.058594 630.859375 L 1085.800781 632.554688 L 1085.542969 630.859375 C 1085.246094 628.878906 1083.691406 627.324219 1081.710938 627.023438 L 1080.015625 626.765625 L 1081.710938 626.511719 C 1083.691406 626.210938 1085.246094 624.65625 1085.542969 622.675781 L 1085.800781 620.980469 L 1086.058594 622.675781 C 1086.359375 624.65625 1087.914062 626.210938 1089.894531 626.511719 Z M 1089.894531 626.511719 " fill-opacity="1" fill-rule="nonzero"/></g><g clip-path="url(#8819864f88)"><path fill="#e3e1df" d="M 1169.105469 346.539062 C 1177.332031 334.164062 1171.601562 314.558594 1156.089844 294.589844 C 1161.242188 294.558594 1166.816406 294.550781 1172.859375 294.550781 L 1172.859375 293.773438 C 1166.550781 293.773438 1160.75 293.765625 1155.417969 293.726562 C 1145.695312 281.433594 1132.296875 269.035156 1116.179688 258.144531 C 1131.570312 268.621094 1143.6875 281.175781 1151.449219 293.695312 C 1120 293.414062 1106.289062 292.164062 1104.226562 287.191406 C 1102.484375 282.988281 1109.566406 275.445312 1119.773438 265.25 L 1119.226562 264.703125 C 1109.027344 274.898438 1101.488281 281.988281 1097.277344 280.242188 C 1092.960938 278.453125 1091.445312 267.871094 1090.9375 244.496094 C 1098.566406 247.625 1106.304688 251.664062 1113.878906 256.613281 C 1106.234375 251.59375 1098.519531 247.257812 1090.914062 243.628906 C 1090.734375 234.804688 1090.6875 224.210938 1090.6875 211.609375 L 1089.90625 211.609375 C 1089.90625 223.9375 1089.867188 234.34375 1089.695312 243.050781 C 1054.738281 226.660156 1022.445312 225.304688 1011.5 241.777344 C 1003.269531 254.152344 1009 273.757812 1024.515625 293.734375 C 1019.359375 293.765625 1013.785156 293.773438 1007.742188 293.773438 L 1007.742188 294.550781 C 1014.050781 294.550781 1019.851562 294.558594 1025.1875 294.597656 C 1034.90625 306.890625 1048.304688 319.289062 1064.421875 330.179688 C 1049.03125 319.703125 1036.914062 307.148438 1029.152344 294.628906 C 1060.601562 294.910156 1074.3125 296.160156 1076.375 301.132812 C 1078.117188 305.335938 1071.035156 312.878906 1060.828125 323.074219 L 1061.375 323.621094 C 1071.574219 313.425781 1079.125 306.34375 1083.324219 308.082031 C 1087.644531 309.871094 1089.15625 320.453125 1089.65625 343.828125 C 1082.027344 340.699219 1074.289062 336.660156 1066.71875 331.710938 C 1074.359375 336.730469 1082.074219 341.066406 1089.679688 344.695312 C 1089.859375 353.519531 1089.90625 364.113281 1089.90625 376.71875 L 1090.6875 376.71875 C 1090.6875 364.386719 1090.726562 353.980469 1090.898438 345.273438 C 1125.855469 361.65625 1158.148438 363.011719 1169.097656 346.539062 Z M 1028.589844 293.695312 C 1018.761719 277.398438 1016.378906 261.265625 1023.867188 250 C 1034.351562 234.226562 1061.109375 232.59375 1089.679688 243.964844 C 1089.1875 267.699219 1087.691406 278.429688 1083.332031 280.234375 C 1079.125 281.980469 1071.582031 274.890625 1061.382812 264.695312 L 1060.835938 265.242188 C 1071.035156 275.4375 1078.117188 282.980469 1076.382812 287.183594 C 1074.3125 292.1875 1060.453125 293.421875 1028.597656 293.6875 Z M 1090.921875 344.34375 C 1091.414062 320.609375 1092.914062 309.878906 1097.269531 308.074219 C 1101.480469 306.335938 1109.019531 313.425781 1119.21875 323.613281 L 1119.765625 323.066406 C 1109.566406 312.871094 1102.484375 305.328125 1104.21875 301.125 C 1106.289062 296.121094 1120.148438 294.886719 1152.011719 294.621094 C 1161.84375 310.917969 1164.222656 327.050781 1156.734375 338.324219 C 1146.25 354.097656 1119.492188 355.722656 1090.921875 344.351562 Z M 1090.921875 344.34375 " fill-opacity="1" fill-rule="nonzero"/></g><g clip-path="url(#04258923f8)"><path fill="#e3e1df" d="M 284.007812 641.675781 L 284.007812 686.367188 L 328.695312 686.367188 C 305.628906 682.980469 287.390625 664.742188 284.007812 641.675781 Z M 284.007812 641.675781 " fill-opacity="1" fill-rule="nonzero"/></g><g clip-path="url(#e6afa3ecd7)"><path fill="#e3e1df" d="M 344.226562 686.367188 L 388.914062 686.367188 L 388.914062 641.675781 C 385.527344 664.746094 367.292969 682.980469 344.226562 686.367188 Z M 344.226562 686.367188 " fill-opacity="1" fill-rule="nonzero"/></g><g clip-path="url(#54f5deb8ce)"><path fill="#e3e1df" d="M 328.695312 581.457031 L 284.007812 581.457031 L 284.007812 626.144531 C 287.390625 603.078125 305.628906 584.839844 328.695312 581.457031 Z M 328.695312 581.457031 " fill-opacity="1" fill-rule="nonzero"/></g><g clip-path="url(#ef0bbb039f)"><path fill="#e3e1df" d="M 381.71875 535.632812 C 352.433594 535.632812 328.695312 559.371094 328.695312 588.652344 C 328.695312 617.9375 352.433594 641.675781 381.71875 641.675781 C 411 641.675781 434.738281 617.9375 434.738281 588.652344 C 434.738281 559.371094 411 535.632812 381.71875 535.632812 Z M 388.914062 626.144531 C 385.527344 603.078125 367.292969 584.839844 344.226562 581.457031 L 388.914062 581.457031 Z M 388.914062 626.144531 " fill-opacity="1" fill-rule="nonzero"/></g></svg>