<svg xmlns="http://www.w3.org/2000/svg" xmlns:xlink="http://www.w3.org/1999/xlink" width="1920" zoomAndPan="magnify" viewBox="0 0 1440 809.999993" height="1080" preserveAspectRatio="xMidYMid meet" version="1.0"><defs><clipPath id="d804dded3e"><path d="M 992.257812 484.261719 L 1158 484.261719 L 1158 650 L 992.257812 650 Z M 992.257812 484.261719 " clip-rule="nonzero"/></clipPath><clipPath id="b1064f3187"><path d="M 996 160.230469 L 1163 160.230469 L 1163 325.230469 L 996 325.230469 Z M 996 160.230469 " clip-rule="nonzero"/></clipPath><clipPath id="a3c2f392a4"><path d="M 273.214844 590 L 318 590 L 318 635 L 273.214844 635 Z M 273.214844 590 " clip-rule="nonzero"/></clipPath><clipPath id="f97f430780"><path d="M 273.214844 530 L 318 530 L 318 575 L 273.214844 575 Z M 273.214844 530 " clip-rule="nonzero"/></clipPath><clipPath id="b875f54adc"><path d="M 317 484.261719 L 423.964844 484.261719 L 423.964844 591 L 317 591 Z M 317 484.261719 " clip-rule="nonzero"/></clipPath></defs><path fill="#e3e1df" d="M 293.808594 184.859375 C 307.929688 170.738281 330.738281 170.597656 345.035156 184.4375 L 345.464844 184.859375 C 348.902344 188.296875 354.449219 188.328125 357.925781 184.964844 L 358.03125 184.859375 C 372.296875 170.59375 395.425781 170.59375 409.691406 184.859375 C 423.816406 198.984375 423.957031 221.792969 410.117188 236.089844 L 409.691406 236.519531 C 406.257812 239.953125 406.222656 245.503906 409.589844 248.980469 L 409.691406 249.085938 C 423.957031 263.351562 423.957031 286.480469 409.691406 300.746094 C 395.570312 314.867188 372.757812 315.007812 358.464844 301.167969 L 358.03125 300.746094 C 354.597656 297.308594 349.050781 297.277344 345.570312 300.640625 L 345.464844 300.746094 C 331.203125 315.011719 308.074219 315.011719 293.808594 300.746094 C 279.683594 286.621094 279.542969 263.8125 293.382812 249.515625 L 293.808594 249.085938 C 297.242188 245.648438 297.277344 240.101562 293.910156 236.625 L 293.808594 236.519531 C 279.542969 222.253906 279.542969 199.125 293.808594 184.859375 Z M 400.847656 245.363281 L 354.308594 291.902344 C 353.429688 292.78125 353.410156 294.195312 354.25 295.097656 L 354.308594 295.160156 C 368.0625 308.910156 390.355469 308.910156 404.105469 295.160156 C 417.859375 281.410156 417.859375 259.113281 404.105469 245.363281 C 403.207031 244.460938 401.75 244.460938 400.847656 245.363281 Z M 299.390625 245.363281 C 285.640625 259.113281 285.640625 281.410156 299.390625 295.160156 C 313.144531 308.910156 335.4375 308.910156 349.191406 295.160156 C 350.089844 294.261719 350.089844 292.800781 349.191406 291.902344 L 302.648438 245.363281 C 301.769531 244.484375 300.355469 244.464844 299.453125 245.300781 Z M 328.480469 216.273438 L 325.222656 219.53125 C 312.371094 232.382812 312.371094 253.222656 325.222656 266.074219 L 328.480469 269.332031 C 341.332031 282.183594 362.167969 282.183594 375.019531 269.332031 L 378.277344 266.074219 C 391.128906 253.222656 391.128906 232.382812 378.277344 219.53125 L 375.019531 216.273438 C 362.167969 203.421875 341.332031 203.421875 328.480469 216.273438 Z M 354.308594 190.445312 C 353.410156 191.34375 353.410156 192.804688 354.308594 193.703125 L 400.851562 240.242188 C 401.730469 241.121094 403.140625 241.140625 404.046875 240.304688 L 404.105469 240.242188 C 417.859375 226.492188 417.859375 204.195312 404.105469 190.445312 C 390.355469 176.695312 368.058594 176.695312 354.308594 190.445312 Z M 299.390625 190.445312 C 285.640625 204.195312 285.640625 226.492188 299.390625 240.242188 C 300.292969 241.140625 301.75 241.140625 302.648438 240.242188 L 349.191406 193.703125 C 350.070312 192.824219 350.089844 191.410156 349.25 190.507812 L 349.191406 190.445312 C 335.4375 176.695312 313.144531 176.695312 299.390625 190.445312 Z M 299.390625 190.445312 " fill-opacity="1" fill-rule="evenodd"/><g clip-path="url(#d804dded3e)"><path fill="#e3e1df" d="M 1075.007812 484.261719 C 1029.382812 484.261719 992.265625 521.382812 992.265625 567.007812 L 992.265625 649.167969 C 992.265625 649.234375 992.28125 649.292969 992.300781 649.351562 C 992.304688 649.359375 992.300781 649.371094 992.304688 649.378906 C 992.304688 649.378906 992.304688 649.378906 992.308594 649.382812 C 992.347656 649.480469 992.414062 649.558594 992.496094 649.621094 C 992.515625 649.636719 992.53125 649.648438 992.550781 649.660156 C 992.640625 649.714844 992.738281 649.753906 992.847656 649.753906 L 1029.296875 649.753906 C 1029.3125 649.753906 1029.328125 649.765625 1029.347656 649.765625 C 1029.367188 649.765625 1029.386719 649.753906 1029.40625 649.753906 L 1047.523438 649.753906 C 1047.554688 649.757812 1047.582031 649.765625 1047.609375 649.765625 C 1047.625 649.765625 1047.640625 649.753906 1047.65625 649.753906 L 1065.765625 649.753906 C 1065.777344 649.753906 1065.785156 649.761719 1065.796875 649.761719 C 1065.820312 649.765625 1065.84375 649.765625 1065.871094 649.765625 C 1065.898438 649.765625 1065.921875 649.757812 1065.949219 649.753906 L 1084.070312 649.753906 C 1084.097656 649.757812 1084.121094 649.765625 1084.148438 649.765625 C 1084.171875 649.765625 1084.199219 649.765625 1084.222656 649.761719 C 1084.234375 649.761719 1084.242188 649.753906 1084.253906 649.753906 L 1102.363281 649.753906 C 1102.378906 649.753906 1102.394531 649.765625 1102.410156 649.765625 C 1102.4375 649.765625 1102.464844 649.757812 1102.492188 649.753906 L 1120.613281 649.753906 C 1120.632812 649.753906 1120.648438 649.765625 1120.671875 649.765625 C 1120.6875 649.765625 1120.703125 649.753906 1120.722656 649.753906 L 1157.171875 649.753906 C 1157.28125 649.753906 1157.378906 649.714844 1157.46875 649.660156 C 1157.488281 649.648438 1157.503906 649.636719 1157.523438 649.621094 C 1157.605469 649.558594 1157.671875 649.480469 1157.710938 649.382812 C 1157.710938 649.382812 1157.714844 649.378906 1157.714844 649.378906 C 1157.71875 649.371094 1157.714844 649.359375 1157.71875 649.351562 C 1157.738281 649.292969 1157.753906 649.234375 1157.753906 649.167969 L 1157.753906 567.007812 C 1157.753906 521.382812 1120.636719 484.261719 1075.007812 484.261719 Z M 994.371094 648.585938 L 1011.980469 632.800781 L 1024.535156 632.800781 L 1010.839844 648.585938 Z M 1068.96875 586.371094 L 1070.351562 586.371094 L 1069.75 587.984375 L 1067.96875 587.984375 Z M 1067.378906 585.203125 L 1068.605469 583.792969 L 1069.195312 583.792969 L 1068.320312 585.203125 Z M 1069.691406 585.203125 L 1070.566406 583.792969 L 1071.308594 583.792969 L 1070.785156 585.203125 Z M 1071.59375 586.371094 L 1073.074219 586.371094 L 1072.875 587.984375 L 1070.996094 587.984375 Z M 1072.027344 585.203125 L 1072.554688 583.792969 L 1073.394531 583.792969 L 1073.21875 585.203125 Z M 1073.519531 592.242188 L 1076.496094 592.242188 L 1076.792969 594.613281 L 1073.226562 594.613281 Z M 1075.769531 586.371094 L 1075.96875 587.984375 L 1074.050781 587.984375 L 1074.25 586.371094 Z M 1074.394531 585.203125 L 1074.570312 583.792969 L 1075.449219 583.792969 L 1075.625 585.203125 Z M 1076.113281 589.148438 L 1076.351562 591.074219 L 1073.667969 591.074219 L 1073.90625 589.148438 Z M 1076.625 583.792969 L 1077.464844 583.792969 L 1077.988281 585.203125 L 1076.796875 585.203125 Z M 1078.421875 586.371094 L 1079.023438 587.984375 L 1077.144531 587.984375 L 1076.941406 586.371094 Z M 1078.707031 583.792969 L 1079.453125 583.792969 L 1080.328125 585.203125 L 1079.234375 585.203125 Z M 1081.050781 586.371094 L 1082.050781 587.984375 L 1080.269531 587.984375 L 1079.667969 586.371094 Z M 1081.699219 585.203125 L 1080.824219 583.792969 L 1081.414062 583.792969 L 1082.640625 585.203125 Z M 1072.125 582.625 L 1067.015625 582.625 L 1067.015625 574.628906 C 1067.015625 570.21875 1070.601562 566.632812 1075.007812 566.632812 C 1079.417969 566.632812 1083.003906 570.21875 1083.003906 574.628906 L 1083.003906 582.625 Z M 1067.058594 583.792969 L 1065.832031 585.203125 L 1065.078125 585.203125 L 1066.652344 583.792969 Z M 1083.363281 583.792969 L 1084.941406 585.203125 L 1084.183594 585.203125 L 1082.960938 583.792969 Z M 1084.171875 582.949219 L 1084.171875 574.628906 C 1084.171875 569.578125 1080.0625 565.46875 1075.007812 565.46875 C 1069.957031 565.46875 1065.847656 569.578125 1065.847656 574.628906 L 1065.847656 582.949219 L 1064.140625 584.476562 L 1064.140625 574.335938 C 1064.140625 568.34375 1069.015625 563.46875 1075.007812 563.46875 C 1081 563.46875 1085.875 568.34375 1085.875 574.335938 L 1085.875 584.476562 Z M 1075.007812 558.90625 C 1066.671875 558.90625 1059.886719 565.6875 1059.886719 574.027344 L 1059.886719 588.292969 L 1057.570312 590.371094 L 1057.570312 573.632812 C 1057.570312 564.019531 1065.390625 556.195312 1075.007812 556.195312 C 1084.625 556.195312 1092.449219 564.019531 1092.449219 573.632812 L 1092.449219 590.371094 L 1090.132812 588.292969 L 1090.132812 574.027344 C 1090.132812 565.6875 1083.347656 558.90625 1075.007812 558.90625 Z M 1075.007812 562.304688 C 1068.375 562.304688 1062.976562 567.703125 1062.976562 574.335938 L 1062.976562 585.523438 L 1061.050781 587.246094 L 1061.050781 574.027344 C 1061.050781 566.332031 1067.3125 560.070312 1075.007812 560.070312 C 1082.703125 560.070312 1088.964844 566.332031 1088.964844 574.027344 L 1088.964844 587.246094 L 1087.042969 585.523438 L 1087.042969 574.335938 C 1087.042969 567.703125 1081.644531 562.304688 1075.007812 562.304688 Z M 1058.527344 591.074219 L 1060.675781 589.148438 L 1062.410156 589.148438 L 1060.738281 591.074219 Z M 1059.726562 592.242188 L 1057.667969 594.613281 L 1054.582031 594.613281 L 1057.226562 592.242188 Z M 1061.976562 587.984375 L 1063.777344 586.371094 L 1064.820312 586.371094 L 1063.421875 587.984375 Z M 1086.242188 586.371094 L 1088.042969 587.984375 L 1086.597656 587.984375 L 1085.195312 586.371094 Z M 1089.34375 589.148438 L 1091.488281 591.074219 L 1089.277344 591.074219 L 1087.609375 589.148438 Z M 1092.789062 592.242188 L 1095.4375 594.613281 L 1092.351562 594.613281 L 1090.292969 592.242188 Z M 1093.617188 591.414062 L 1093.617188 573.632812 C 1093.617188 563.375 1085.269531 555.027344 1075.007812 555.027344 C 1064.75 555.027344 1056.402344 563.375 1056.402344 573.632812 L 1056.402344 591.414062 L 1053.65625 593.878906 L 1053.65625 573.425781 C 1053.65625 561.648438 1063.234375 552.070312 1075.007812 552.070312 C 1086.785156 552.070312 1096.363281 561.648438 1096.363281 573.425781 L 1096.363281 593.878906 Z M 1056.65625 595.78125 L 1053.96875 598.878906 L 1049.824219 598.878906 L 1053.101562 595.9375 C 1053.246094 595.929688 1053.378906 595.875 1053.476562 595.78125 Z M 1058.203125 595.78125 L 1061.765625 595.78125 L 1059.84375 598.878906 L 1055.511719 598.878906 Z M 1059.214844 594.613281 L 1061.273438 592.242188 L 1063.957031 592.242188 L 1062.488281 594.613281 Z M 1062.285156 591.074219 L 1063.953125 589.148438 L 1065.875 589.148438 L 1064.679688 591.074219 Z M 1064.964844 587.984375 L 1066.367188 586.371094 L 1067.597656 586.371094 L 1066.597656 587.984375 Z M 1067.246094 589.148438 L 1069.316406 589.148438 L 1068.601562 591.074219 L 1066.050781 591.074219 Z M 1069.410156 592.242188 L 1072.347656 592.242188 L 1072.050781 594.613281 L 1068.527344 594.613281 Z M 1069.84375 591.074219 L 1070.558594 589.148438 L 1072.730469 589.148438 L 1072.492188 591.074219 Z M 1073.082031 595.78125 L 1076.9375 595.78125 L 1077.320312 598.878906 L 1072.699219 598.878906 Z M 1077.289062 589.148438 L 1079.457031 589.148438 L 1080.171875 591.074219 L 1077.527344 591.074219 Z M 1080.605469 592.242188 L 1081.492188 594.613281 L 1077.964844 594.613281 L 1077.671875 592.242188 Z M 1081.417969 591.074219 L 1080.703125 589.148438 L 1082.773438 589.148438 L 1083.964844 591.074219 Z M 1083.421875 587.984375 L 1082.421875 586.371094 L 1083.652344 586.371094 L 1085.050781 587.984375 Z M 1086.0625 589.148438 L 1087.734375 591.074219 L 1085.339844 591.074219 L 1084.144531 589.148438 Z M 1088.746094 592.242188 L 1090.804688 594.613281 L 1087.53125 594.613281 L 1086.0625 592.242188 Z M 1091.816406 595.78125 L 1094.503906 598.878906 L 1090.175781 598.878906 L 1088.253906 595.78125 Z M 1093.363281 595.78125 L 1096.542969 595.78125 C 1096.640625 595.875 1096.769531 595.929688 1096.917969 595.9375 L 1100.195312 598.878906 L 1096.050781 598.878906 Z M 1097.53125 594.921875 L 1097.53125 573.425781 C 1097.53125 561.007812 1087.425781 550.90625 1075.007812 550.90625 C 1062.589844 550.90625 1052.488281 561.007812 1052.488281 573.425781 L 1052.488281 594.921875 L 1048.773438 598.253906 L 1048.773438 572.664062 C 1048.773438 558.199219 1060.542969 546.429688 1075.007812 546.429688 C 1089.476562 546.429688 1101.246094 558.199219 1101.246094 572.664062 L 1101.246094 598.253906 Z M 1052.957031 600.042969 L 1047.691406 606.113281 L 1041.75 606.113281 L 1048.523438 600.042969 Z M 1054.5 600.042969 L 1059.121094 600.042969 L 1055.359375 606.113281 L 1049.234375 606.113281 Z M 1060.492188 600.042969 L 1065.265625 600.042969 L 1063.007812 606.113281 L 1056.730469 606.113281 Z M 1061.214844 598.878906 L 1063.136719 595.78125 L 1066.851562 595.78125 L 1065.699219 598.878906 Z M 1063.859375 594.613281 L 1065.328125 592.242188 L 1068.167969 592.242188 L 1067.285156 594.613281 Z M 1068.09375 595.78125 L 1071.90625 595.78125 L 1071.523438 598.878906 L 1066.941406 598.878906 Z M 1072.554688 600.042969 L 1077.464844 600.042969 L 1078.21875 606.113281 L 1071.800781 606.113281 Z M 1078.109375 595.78125 L 1081.925781 595.78125 L 1083.078125 598.878906 L 1078.496094 598.878906 Z M 1082.734375 594.613281 L 1081.851562 592.242188 L 1084.6875 592.242188 L 1086.160156 594.613281 Z M 1086.882812 595.78125 L 1088.804688 598.878906 L 1084.320312 598.878906 L 1083.167969 595.78125 Z M 1089.527344 600.042969 L 1093.289062 606.113281 L 1087.011719 606.113281 L 1084.753906 600.042969 Z M 1090.898438 600.042969 L 1095.515625 600.042969 L 1100.785156 606.113281 L 1094.660156 606.113281 Z M 1097.0625 600.042969 L 1101.496094 600.042969 L 1108.265625 606.113281 L 1102.328125 606.113281 Z M 1102.414062 599.300781 L 1102.414062 572.664062 C 1102.414062 557.554688 1090.121094 545.261719 1075.007812 545.261719 C 1059.898438 545.261719 1047.605469 557.554688 1047.605469 572.664062 L 1047.605469 599.300781 L 1040.8125 605.390625 L 1040.8125 571.917969 C 1040.8125 553.058594 1056.152344 537.71875 1075.007812 537.71875 C 1093.867188 537.71875 1109.207031 553.058594 1109.207031 571.917969 L 1109.207031 605.390625 Z M 1046.679688 607.28125 L 1039.269531 615.816406 L 1030.925781 615.816406 L 1040.449219 607.28125 Z M 1048.222656 607.28125 L 1054.636719 607.28125 L 1049.34375 615.816406 L 1040.816406 615.816406 Z M 1056.007812 607.28125 L 1062.574219 607.28125 L 1059.398438 615.816406 L 1050.714844 615.816406 Z M 1063.816406 607.28125 L 1070.480469 607.28125 L 1069.421875 615.816406 L 1060.640625 615.816406 Z M 1064.25 606.113281 L 1066.507812 600.042969 L 1071.378906 600.042969 L 1070.625 606.113281 Z M 1071.65625 607.28125 L 1078.363281 607.28125 L 1079.421875 615.816406 L 1070.597656 615.816406 Z M 1079.394531 606.113281 L 1078.640625 600.042969 L 1083.511719 600.042969 L 1085.769531 606.113281 Z M 1086.203125 607.28125 L 1089.378906 615.816406 L 1080.597656 615.816406 L 1079.539062 607.28125 Z M 1087.445312 607.28125 L 1094.011719 607.28125 L 1099.304688 615.816406 L 1090.621094 615.816406 Z M 1095.382812 607.28125 L 1101.792969 607.28125 L 1109.203125 615.816406 L 1100.675781 615.816406 Z M 1103.339844 607.28125 L 1109.570312 607.28125 L 1119.09375 615.816406 L 1110.746094 615.816406 Z M 1110.375 606.4375 L 1110.375 571.917969 C 1110.375 552.414062 1094.507812 536.550781 1075.007812 536.550781 C 1055.507812 536.550781 1039.644531 552.414062 1039.644531 571.917969 L 1039.644531 606.4375 L 1030.019531 615.0625 L 1030.019531 570.828125 C 1030.019531 546.023438 1050.203125 525.839844 1075.007812 525.839844 C 1099.816406 525.839844 1120 546.023438 1120 570.828125 L 1120 615.0625 Z M 1038.257812 616.984375 L 1025.546875 631.636719 L 1013.28125 631.636719 L 1029.625 616.984375 Z M 1039.804688 616.984375 L 1048.621094 616.984375 L 1039.539062 631.636719 L 1027.089844 631.636719 Z M 1049.992188 616.984375 L 1058.964844 616.984375 L 1053.511719 631.636719 L 1040.910156 631.636719 Z M 1060.207031 616.984375 L 1069.277344 616.984375 L 1067.457031 631.636719 L 1054.757812 631.636719 Z M 1070.449219 616.984375 L 1079.566406 616.984375 L 1081.386719 631.636719 L 1068.632812 631.636719 Z M 1080.742188 616.984375 L 1089.8125 616.984375 L 1095.261719 631.636719 L 1082.558594 631.636719 Z M 1091.054688 616.984375 L 1100.027344 616.984375 L 1109.105469 631.636719 L 1096.503906 631.636719 Z M 1101.398438 616.984375 L 1110.214844 616.984375 L 1122.925781 631.636719 L 1110.480469 631.636719 Z M 1111.757812 616.984375 L 1120.394531 616.984375 L 1136.738281 631.636719 L 1124.472656 631.636719 Z M 1121.164062 616.109375 L 1121.164062 570.828125 C 1121.164062 545.378906 1100.460938 524.671875 1075.007812 524.671875 C 1049.558594 524.671875 1028.855469 545.378906 1028.855469 570.828125 L 1028.855469 616.109375 L 1012.445312 630.820312 L 1012.445312 569.070312 C 1012.445312 534.570312 1040.511719 506.503906 1075.007812 506.503906 C 1109.507812 506.503906 1137.574219 534.570312 1137.574219 569.070312 L 1137.574219 630.820312 Z M 1029.03125 648.585938 L 1012.382812 648.585938 L 1026.082031 632.800781 L 1038.816406 632.800781 Z M 1047.207031 648.585938 L 1030.40625 648.585938 L 1040.1875 632.800781 L 1053.078125 632.800781 Z M 1065.355469 648.585938 L 1048.453125 648.585938 L 1054.324219 632.800781 L 1067.3125 632.800781 Z M 1066.53125 648.585938 L 1068.488281 632.800781 L 1081.53125 632.800781 L 1083.488281 648.585938 Z M 1084.664062 648.585938 L 1082.703125 632.800781 L 1095.695312 632.800781 L 1101.566406 648.585938 Z M 1102.808594 648.585938 L 1096.9375 632.800781 L 1109.828125 632.800781 L 1119.613281 648.585938 Z M 1120.984375 648.585938 L 1111.203125 632.800781 L 1123.9375 632.800781 L 1137.632812 648.585938 Z M 1139.179688 648.585938 L 1125.484375 632.800781 L 1138.039062 632.800781 L 1155.648438 648.585938 Z M 1156.589844 647.863281 L 1138.742188 631.863281 L 1138.742188 629.484375 L 1138.839844 629.484375 L 1138.839844 579.796875 L 1138.742188 579.796875 L 1138.742188 569.070312 C 1138.742188 533.929688 1110.152344 505.339844 1075.007812 505.339844 C 1039.867188 505.339844 1011.277344 533.929688 1011.277344 569.070312 L 1011.277344 631.863281 L 993.429688 647.863281 L 993.429688 567.007812 C 993.429688 522.027344 1030.027344 485.429688 1075.007812 485.429688 C 1119.992188 485.429688 1156.589844 522.027344 1156.589844 567.007812 Z M 1079.101562 575.140625 L 1080.796875 575.398438 L 1079.101562 575.652344 C 1077.121094 575.953125 1075.566406 577.507812 1075.265625 579.488281 L 1075.007812 581.183594 L 1074.753906 579.488281 C 1074.453125 577.507812 1072.898438 575.953125 1070.917969 575.652344 L 1069.222656 575.398438 L 1070.917969 575.140625 C 1072.898438 574.839844 1074.453125 573.285156 1074.753906 571.304688 L 1075.007812 569.613281 L 1075.265625 571.304688 C 1075.566406 573.285156 1077.121094 574.839844 1079.101562 575.140625 Z M 1079.101562 575.140625 " fill-opacity="1" fill-rule="nonzero"/></g><g clip-path="url(#b1064f3187)"><path fill="#e3e1df" d="M 1158.3125 295.167969 C 1166.542969 282.792969 1160.8125 263.1875 1145.296875 243.222656 C 1150.449219 243.191406 1156.023438 243.183594 1162.066406 243.183594 L 1162.066406 242.402344 C 1155.757812 242.402344 1149.957031 242.394531 1144.625 242.355469 C 1134.902344 230.066406 1121.503906 217.664062 1105.390625 206.773438 C 1120.777344 217.25 1132.898438 229.808594 1140.65625 242.324219 C 1109.207031 242.042969 1095.496094 240.792969 1093.433594 235.820312 C 1091.695312 231.617188 1098.777344 224.074219 1108.980469 213.878906 L 1108.433594 213.332031 C 1098.238281 223.53125 1090.695312 230.621094 1086.484375 228.871094 C 1082.167969 227.082031 1080.652344 216.503906 1080.144531 193.125 C 1087.773438 196.257812 1095.511719 200.292969 1103.085938 205.242188 C 1095.441406 200.222656 1087.726562 195.890625 1080.121094 192.257812 C 1079.941406 183.433594 1079.894531 172.839844 1079.894531 160.238281 L 1079.113281 160.238281 C 1079.113281 172.566406 1079.074219 182.972656 1078.902344 191.679688 C 1043.949219 175.292969 1011.652344 173.933594 1000.707031 190.40625 C 992.476562 202.785156 998.207031 222.390625 1013.722656 242.363281 C 1008.570312 242.394531 1002.992188 242.402344 996.949219 242.402344 L 996.949219 243.183594 C 1003.257812 243.183594 1009.0625 243.191406 1014.394531 243.230469 C 1024.113281 255.519531 1037.511719 267.917969 1053.628906 278.8125 C 1038.238281 268.332031 1026.121094 255.777344 1018.359375 243.261719 C 1049.8125 243.542969 1063.523438 244.789062 1065.582031 249.765625 C 1067.324219 253.964844 1060.242188 261.507812 1050.039062 271.707031 L 1050.3125 271.980469 L 1050.585938 272.25 C 1060.78125 262.054688 1068.332031 254.972656 1072.53125 256.714844 C 1076.851562 258.5 1078.367188 269.082031 1078.863281 292.460938 C 1071.238281 289.328125 1063.5 285.292969 1055.925781 280.339844 C 1063.570312 285.363281 1071.285156 289.695312 1078.886719 293.324219 C 1079.066406 302.148438 1079.113281 312.746094 1079.113281 325.347656 L 1079.894531 325.347656 C 1079.894531 313.019531 1079.933594 302.609375 1080.105469 293.902344 C 1115.0625 310.285156 1147.355469 311.644531 1158.304688 295.167969 Z M 1017.796875 242.324219 C 1007.96875 226.027344 1005.585938 209.898438 1013.074219 198.628906 C 1023.558594 182.855469 1050.320312 181.226562 1078.886719 192.59375 C 1078.398438 216.332031 1076.898438 227.058594 1072.539062 228.863281 C 1068.332031 230.613281 1060.789062 223.523438 1050.59375 213.324219 L 1050.046875 213.871094 C 1060.242188 224.066406 1067.324219 231.609375 1065.589844 235.8125 C 1063.523438 240.816406 1049.664062 242.050781 1017.804688 242.316406 Z M 1080.128906 292.972656 C 1080.621094 269.238281 1082.121094 258.507812 1086.476562 256.707031 C 1090.6875 254.964844 1098.230469 262.054688 1108.425781 272.242188 L 1108.699219 271.972656 L 1108.972656 271.699219 C 1098.777344 261.5 1091.695312 253.957031 1093.425781 249.757812 C 1095.496094 244.75 1109.355469 243.519531 1141.21875 243.253906 C 1151.050781 259.546875 1153.433594 275.679688 1145.945312 286.953125 C 1135.457031 302.726562 1108.699219 304.351562 1080.128906 292.980469 Z M 1080.128906 292.972656 " fill-opacity="1" fill-rule="nonzero"/></g><g clip-path="url(#a3c2f392a4)"><path fill="#e3e1df" d="M 273.214844 590.308594 L 273.214844 634.996094 L 317.902344 634.996094 C 294.835938 631.609375 276.597656 613.371094 273.214844 590.308594 Z M 273.214844 590.308594 " fill-opacity="1" fill-rule="nonzero"/></g><path fill="#e3e1df" d="M 333.433594 634.996094 L 378.121094 634.996094 L 378.121094 590.308594 C 374.734375 613.375 356.5 631.609375 333.433594 634.996094 Z M 333.433594 634.996094 " fill-opacity="1" fill-rule="nonzero"/><g clip-path="url(#f97f430780)"><path fill="#e3e1df" d="M 317.902344 530.085938 L 273.214844 530.085938 L 273.214844 574.777344 C 276.597656 551.707031 294.835938 533.472656 317.902344 530.085938 Z M 317.902344 530.085938 " fill-opacity="1" fill-rule="nonzero"/></g><g clip-path="url(#b875f54adc)"><path fill="#e3e1df" d="M 370.925781 484.261719 C 341.640625 484.261719 317.902344 508.003906 317.902344 537.285156 C 317.902344 566.566406 341.644531 590.304688 370.925781 590.304688 C 400.207031 590.304688 423.945312 566.566406 423.945312 537.285156 C 423.945312 508.003906 400.207031 484.261719 370.925781 484.261719 Z M 378.121094 574.777344 C 374.734375 551.707031 356.5 533.472656 333.433594 530.085938 L 378.121094 530.085938 Z M 378.121094 574.777344 " fill-opacity="1" fill-rule="nonzero"/></g></svg>