<svg xmlns="http://www.w3.org/2000/svg" xmlns:xlink="http://www.w3.org/1999/xlink" width="500" zoomAndPan="magnify" viewBox="0 0 375 374.999991" height="500" preserveAspectRatio="xMidYMid meet" version="1.0"><path fill="#c4c094" d="M 181.195312 294.417969 C 179.746094 259.949219 197.648438 202.136719 197.519531 194.125 C 197.511719 193.640625 197.488281 192.210938 196.683594 191.785156 C 195.183594 191 192.039062 194.253906 190.988281 195.339844 C 187.730469 198.710938 184.398438 203.050781 181.324219 207.472656 C 176.175781 211.59375 170.070312 216.875 165.214844 221.074219 C 154.621094 230.238281 144.304688 239.210938 131.308594 253.003906 C 120.21875 264.777344 112.574219 274.335938 107.566406 287.457031 C 103.453125 298.242188 104.324219 303.039062 106.5625 305.855469 C 108.664062 308.496094 112.679688 310.285156 115.898438 309.273438 C 121.917969 307.378906 122.667969 296.472656 124.339844 288.988281 C 128.558594 270.117188 140.964844 262.675781 163.136719 238.273438 C 157.726562 248.003906 151.515625 258.070312 142.5625 268.648438 C 137.332031 274.828125 134.933594 276.734375 133.792969 281.484375 C 131.511719 290.976562 137.933594 296.503906 148.375 316.445312 C 156.957031 332.832031 156.679688 336.851562 166.589844 353.726562 C 174.246094 366.761719 178.265625 373.480469 181.605469 372.746094 C 188.722656 371.175781 186.792969 337.039062 186.484375 331.546875 C 185.234375 309.382812 181.789062 308.53125 181.195312 294.417969 Z M 181.195312 294.417969 " fill-opacity="1" fill-rule="nonzero"/><path fill="#c4c094" d="M 188.425781 196.714844 C 188.730469 196.339844 189.632812 195.226562 189.285156 194.386719 C 188.644531 192.816406 184.144531 193.289062 182.644531 193.445312 C 177.984375 193.933594 172.644531 195.109375 167.453125 196.519531 C 160.859375 196.363281 152.792969 196.480469 146.375 196.574219 C 132.375 196.777344 118.707031 197.011719 99.898438 199.21875 C 83.839844 201.101562 71.847656 203.503906 59.585938 210.332031 C 49.507812 215.949219 47.09375 220.183594 47.003906 223.78125 C 46.914062 227.15625 48.839844 231.109375 51.957031 232.40625 C 57.785156 234.828125 65.363281 226.957031 71.453125 222.300781 C 86.800781 210.558594 101.085938 212.835938 133.742188 208.410156 C 123.347656 212.386719 112.121094 216.101562 98.46875 218.445312 C 90.496094 219.8125 87.433594 219.730469 83.511719 222.632812 C 75.667969 228.4375 77.039062 236.804688 72.230469 258.796875 C 68.28125 276.871094 65.488281 279.773438 62.242188 299.078125 C 59.738281 313.988281 58.503906 321.722656 61.535156 323.308594 C 67.996094 326.683594 88.4375 299.292969 91.726562 294.886719 C 105.003906 277.101562 102.910156 274.234375 111.519531 263.039062 C 132.539062 235.707031 183.378906 202.9375 188.425781 196.714844 Z M 188.425781 196.714844 " fill-opacity="1" fill-rule="nonzero"/><path fill="#c4c094" d="M 179.792969 192.847656 C 180.269531 192.757812 181.675781 192.484375 181.949219 191.617188 C 182.464844 190.003906 178.714844 187.46875 177.464844 186.621094 C 173.582031 183.996094 168.734375 181.460938 163.851562 179.199219 C 158.902344 174.84375 152.648438 169.742188 147.671875 165.683594 C 136.816406 156.828125 126.199219 148.21875 110.371094 137.804688 C 96.863281 128.914062 86.132812 123.039062 72.351562 120.378906 C 61.027344 118.195312 56.460938 119.890625 54.082031 122.585938 C 51.847656 125.113281 50.78125 129.382812 52.335938 132.382812 C 55.246094 137.988281 66.105469 136.832031 73.757812 137.183594 C 93.058594 138.0625 102.535156 149 130.394531 166.621094 C 119.878906 162.976562 108.894531 158.601562 96.933594 151.613281 C 89.945312 147.53125 87.652344 145.496094 82.785156 145.195312 C 73.050781 144.597656 68.726562 151.890625 50.921875 165.644531 C 36.289062 176.945312 32.285156 177.371094 17.402344 190.070312 C 5.910156 199.882812 -0.00390625 205.015625 1.300781 208.175781 C 4.082031 214.917969 37.328125 207.09375 42.679688 205.832031 C 64.269531 200.75 64.507812 197.207031 78.289062 194.171875 C 111.949219 186.757812 171.933594 194.367188 179.792969 192.847656 Z M 179.792969 192.847656 " fill-opacity="1" fill-rule="nonzero"/><path fill="#c4c094" d="M 62.292969 106.054688 C 82.09375 116.054688 84.550781 113.492188 97.0625 120.035156 C 127.605469 136.011719 168.671875 180.4375 175.667969 184.332031 C 176.089844 184.566406 177.339844 185.261719 178.109375 184.777344 C 179.539062 183.871094 178.296875 179.515625 177.882812 178.066406 C 176.59375 173.554688 174.503906 168.496094 172.21875 163.621094 C 171.226562 157.097656 169.710938 149.164062 168.503906 142.855469 C 165.875 129.085938 163.269531 115.65625 157.832031 97.496094 C 153.191406 81.996094 148.746094 70.589844 139.894531 59.6875 C 132.625 50.726562 128.039062 49.085938 124.484375 49.617188 C 121.148438 50.117188 117.589844 52.703125 116.855469 56.003906 C 115.484375 62.167969 124.546875 68.269531 130.183594 73.464844 C 144.402344 86.558594 144.640625 101.03125 154.664062 132.457031 C 148.949219 122.898438 143.347656 112.480469 138.667969 99.429688 C 135.9375 91.804688 135.488281 88.773438 131.953125 85.410156 C 124.878906 78.6875 116.882812 81.488281 94.414062 80.570312 C 75.945312 79.816406 72.605469 77.5625 53.050781 77.71875 C 37.945312 77.835938 30.121094 77.964844 29.089844 81.226562 C 26.890625 88.179688 57.386719 103.578125 62.292969 106.054688 Z M 62.292969 106.054688 " fill-opacity="1" fill-rule="nonzero"/><path fill="#c4c094" d="M 159.046875 75.320312 C 172.183594 107.214844 175.113281 167.667969 177.972656 175.152344 C 178.148438 175.605469 178.65625 176.941406 179.558594 177.066406 C 181.238281 177.292969 183.078125 173.15625 183.695312 171.777344 C 185.601562 167.492188 187.253906 162.273438 188.632812 157.070312 C 192.058594 151.429688 195.992188 144.378906 199.121094 138.769531 C 205.945312 126.53125 212.574219 114.566406 220.070312 97.15625 C 226.46875 82.296875 230.390625 70.699219 230.613281 56.652344 C 230.792969 45.109375 228.335938 40.902344 225.269531 39.023438 C 222.394531 37.261719 218.007812 36.953125 215.328125 39.003906 C 210.320312 42.84375 213.339844 53.351562 214.328125 60.957031 C 216.808594 80.136719 207.695312 91.378906 195.195312 121.902344 C 196.957031 110.902344 199.355469 99.3125 204.152344 86.308594 C 206.953125 78.710938 208.558594 76.097656 208.007812 71.246094 C 206.910156 61.546875 198.984375 58.546875 182.359375 43.386719 C 168.699219 30.925781 167.582031 27.050781 152.503906 14.585938 C 140.859375 4.957031 134.78125 0.0234375 131.898438 1.859375 C 125.746094 5.769531 139.21875 37.183594 141.390625 42.242188 C 150.136719 62.640625 153.664062 62.261719 159.046875 75.320312 Z M 159.046875 75.320312 " fill-opacity="1" fill-rule="nonzero"/><path fill="#c4c094" d="M 185.621094 172.089844 C 186.761719 173.34375 190.828125 171.359375 192.183594 170.699219 C 196.398438 168.644531 201.015625 165.710938 205.410156 162.609375 C 211.65625 160.496094 219.199219 157.625 225.195312 155.34375 C 238.285156 150.359375 251.042969 145.457031 267.96875 136.945312 C 282.410156 129.679688 292.863281 123.316406 302.050781 112.699219 C 309.601562 103.972656 310.421875 99.167969 309.28125 95.757812 C 308.210938 92.554688 305.046875 89.496094 301.675781 89.347656 C 295.371094 89.066406 290.941406 99.054688 286.8125 105.515625 C 276.398438 121.808594 262.199219 124.554688 233.023438 139.894531 C 241.433594 132.601562 250.714844 125.265625 262.738281 118.390625 C 269.765625 114.375 272.671875 113.40625 275.367188 109.332031 C 280.753906 101.195312 276.605469 93.796875 273.609375 71.488281 C 271.144531 53.152344 272.777344 49.46875 269.230469 30.21875 C 266.492188 15.347656 265.007812 7.65625 261.617188 7.207031 C 254.394531 6.246094 244.542969 38.980469 242.957031 44.25 C 236.558594 65.503906 239.507812 67.484375 235.242188 80.949219 C 224.828125 113.835938 188.25 162.03125 185.636719 169.605469 C 185.476562 170.0625 185.007812 171.417969 185.621094 172.089844 Z M 185.621094 172.089844 " fill-opacity="1" fill-rule="nonzero"/><path fill="#c4c094" d="M 195.066406 170.285156 C 194.648438 170.535156 193.421875 171.269531 193.460938 172.179688 C 193.527344 173.875 197.917969 174.972656 199.378906 175.339844 C 203.925781 176.476562 209.347656 177.195312 214.707031 177.652344 C 220.851562 180.050781 228.46875 182.707031 234.53125 184.816406 C 247.757812 189.417969 260.679688 193.875 279.109375 198.242188 C 294.839844 201.96875 306.933594 203.820312 320.789062 201.597656 C 332.175781 199.773438 335.890625 196.621094 337.207031 193.273438 C 338.441406 190.128906 337.984375 185.753906 335.496094 183.46875 C 330.847656 179.195312 321.039062 184 313.726562 186.292969 C 295.289062 192.070312 282.648438 185.039062 250.445312 178.015625 C 261.574219 177.839844 273.390625 178.195312 287.019531 180.664062 C 294.980469 182.109375 297.828125 183.234375 302.507812 181.851562 C 311.859375 179.082031 313.433594 170.746094 325.460938 151.726562 C 335.347656 136.097656 338.96875 134.324219 348.609375 117.296875 C 356.0625 104.144531 359.863281 97.296875 357.554688 94.769531 C 352.640625 89.386719 324.070312 108.125 319.472656 111.140625 C 300.921875 123.308594 301.910156 126.71875 289.996094 134.289062 C 260.902344 152.78125 201.933594 166.167969 195.066406 170.285156 Z M 195.066406 170.285156 " fill-opacity="1" fill-rule="nonzero"/><path fill="#c4c094" d="M 335.136719 211.613281 C 313.113281 209 311.679688 212.246094 297.6875 210.382812 C 263.527344 205.824219 209.757812 178.136719 201.855469 176.875 C 201.375 176.796875 199.964844 176.570312 199.40625 177.292969 C 198.371094 178.632812 201.03125 182.300781 201.914062 183.519531 C 204.667969 187.316406 208.355469 191.359375 212.171875 195.15625 C 215.332031 200.945312 219.46875 207.882812 222.757812 213.398438 C 229.933594 225.433594 236.96875 237.164062 248.285156 252.367188 C 257.941406 265.34375 266.015625 274.542969 278.054688 281.753906 C 287.949219 287.683594 292.820312 287.660156 295.980469 285.941406 C 298.941406 284.328125 301.402344 280.679688 300.964844 277.332031 C 300.148438 271.066406 289.546875 268.433594 282.472656 265.484375 C 264.640625 258.050781 259.472656 244.527344 239.3125 218.429688 C 247.949219 225.457031 256.777344 233.328125 265.628906 243.992188 C 270.800781 250.21875 272.257812 252.914062 276.734375 254.863281 C 285.675781 258.761719 292.230469 253.390625 313.660156 246.558594 C 331.273438 240.949219 335.179688 241.917969 353.503906 235.078125 C 367.65625 229.796875 374.964844 226.996094 374.820312 223.578125 C 374.511719 216.292969 340.59375 212.261719 335.136719 211.613281 Z M 335.136719 211.613281 " fill-opacity="1" fill-rule="nonzero"/><path fill="#c4c094" d="M 254.71875 273.621094 C 231.476562 248.148438 208.066406 192.34375 202.824219 186.289062 C 202.503906 185.921875 201.570312 184.839844 200.679688 185.035156 C 199.027344 185.398438 198.707031 189.914062 198.601562 191.421875 C 198.269531 196.101562 198.503906 201.570312 198.988281 206.929688 C 197.691406 213.402344 196.402344 221.375 195.382812 227.71875 C 193.148438 241.554688 191.007812 255.066406 189.914062 273.996094 C 188.976562 290.148438 189.257812 302.390625 193.847656 315.664062 C 197.621094 326.574219 201.367188 329.6875 204.890625 330.402344 C 208.195312 331.074219 212.421875 329.863281 214.238281 327.015625 C 217.632812 321.691406 211.203125 312.855469 207.679688 306.042969 C 198.792969 288.871094 203.515625 275.1875 204.832031 242.226562 C 206.9375 253.164062 208.644531 264.875 208.578125 278.738281 C 208.542969 286.835938 207.925781 289.839844 210.101562 294.214844 C 214.449219 302.953125 222.921875 303.054688 243.722656 311.613281 C 260.816406 318.644531 263.1875 321.902344 281.617188 328.453125 C 295.851562 333.511719 303.246094 336.070312 305.332031 333.359375 C 309.773438 327.578125 286.378906 302.667969 282.613281 298.660156 C 267.421875 282.484375 264.238281 284.050781 254.71875 273.621094 Z M 254.71875 273.621094 " fill-opacity="1" fill-rule="nonzero"/><path fill="#7c7227" d="M 184.671875 137.363281 C 158.75 142.351562 153.988281 145.414062 150.535156 148.753906 C 143.875 155.191406 142.058594 162.664062 138.523438 177.230469 C 134.265625 194.757812 132.03125 203.960938 135.992188 214.566406 C 141.402344 229.042969 156.980469 242.457031 171.394531 241.144531 C 183.226562 240.070312 183.777344 230.03125 202.371094 220.261719 C 221.839844 210.035156 230.070312 216.398438 238.40625 208.238281 C 255.15625 191.839844 246.109375 142.460938 222.601562 132.933594 C 217.804688 130.992188 206.757812 133.117188 184.671875 137.363281 Z M 184.671875 137.363281 " fill-opacity="1" fill-rule="nonzero"/></svg>