<svg xmlns="http://www.w3.org/2000/svg" xmlns:xlink="http://www.w3.org/1999/xlink" width="500" zoomAndPan="magnify" viewBox="0 0 375 374.999991" height="500" preserveAspectRatio="xMidYMid meet" version="1.0"><rect x="-37.5" width="450" fill="#ffffff" y="-37.499999" height="449.999989" fill-opacity="1"/><rect x="-37.5" width="450" fill="#ffffff" y="-37.499999" height="449.999989" fill-opacity="1"/><path fill="#a1a67e" d="M 370.425781 179.785156 C 370.441406 182.742188 370.390625 185.695312 370.261719 188.648438 C 370.136719 191.605469 369.9375 194.550781 369.664062 197.496094 C 369.394531 200.441406 369.050781 203.375 368.632812 206.304688 C 368.21875 209.230469 367.730469 212.144531 367.167969 215.050781 C 366.609375 217.953125 365.980469 220.839844 365.277344 223.710938 C 364.574219 226.585938 363.800781 229.4375 362.960938 232.269531 C 362.117188 235.105469 361.207031 237.917969 360.226562 240.707031 C 359.246094 243.496094 358.195312 246.257812 357.078125 248.996094 C 355.960938 251.734375 354.777344 254.441406 353.527344 257.121094 C 352.277344 259.800781 350.960938 262.449219 349.582031 265.0625 C 348.203125 267.675781 346.757812 270.257812 345.25 272.800781 C 343.742188 275.34375 342.171875 277.847656 340.542969 280.3125 C 338.910156 282.78125 337.222656 285.203125 335.472656 287.585938 C 333.722656 289.972656 331.914062 292.308594 330.046875 294.601562 C 328.183594 296.898438 326.261719 299.144531 324.285156 301.34375 C 322.308594 303.542969 320.28125 305.691406 318.199219 307.792969 C 316.117188 309.890625 313.984375 311.9375 311.804688 313.933594 C 309.621094 315.929688 307.390625 317.867188 305.113281 319.753906 C 302.835938 321.636719 300.511719 323.464844 298.144531 325.234375 C 295.777344 327.003906 293.367188 328.714844 290.914062 330.367188 C 288.460938 332.019531 285.96875 333.609375 283.441406 335.140625 C 280.910156 336.667969 278.34375 338.136719 275.738281 339.539062 C 273.136719 340.941406 270.5 342.277344 267.832031 343.550781 C 265.164062 344.824219 262.464844 346.03125 259.738281 347.171875 C 257.011719 348.3125 254.257812 349.382812 251.476562 350.386719 C 248.695312 351.394531 245.890625 352.328125 243.0625 353.195312 C 240.238281 354.0625 237.390625 354.859375 234.523438 355.585938 C 231.660156 356.3125 228.777344 356.964844 225.878906 357.550781 C 222.980469 358.136719 220.070312 358.648438 217.144531 359.089844 C 214.222656 359.53125 211.289062 359.898438 208.347656 360.195312 C 205.40625 360.492188 202.460938 360.71875 199.507812 360.871094 C 196.554688 361.023438 193.597656 361.101562 190.644531 361.105469 C 187.6875 361.113281 184.730469 361.046875 181.777344 360.90625 C 178.824219 360.769531 175.875 360.558594 172.933594 360.273438 C 169.992188 359.988281 167.054688 359.632812 164.128906 359.203125 C 161.207031 358.773438 158.292969 358.273438 155.390625 357.703125 C 152.492188 357.128906 149.605469 356.484375 146.738281 355.773438 C 143.867188 355.058594 141.019531 354.273438 138.1875 353.417969 C 135.355469 352.566406 132.550781 351.640625 129.765625 350.648438 C 126.980469 349.65625 124.21875 348.59375 121.488281 347.464844 C 118.753906 346.335938 116.050781 345.144531 113.378906 343.882812 C 110.703125 342.621094 108.0625 341.292969 105.453125 339.902344 C 102.84375 338.507812 100.273438 337.054688 97.734375 335.535156 C 95.199219 334.019531 92.699219 332.4375 90.242188 330.796875 C 87.78125 329.15625 85.363281 327.453125 82.988281 325.695312 C 80.613281 323.933594 78.28125 322.117188 75.996094 320.242188 C 73.710938 318.367188 71.472656 316.4375 69.28125 314.449219 C 67.089844 312.464844 64.949219 310.425781 62.859375 308.335938 C 60.769531 306.246094 58.730469 304.105469 56.746094 301.914062 C 54.757812 299.722656 52.828125 297.484375 50.953125 295.199219 C 49.078125 292.914062 47.261719 290.582031 45.5 288.207031 C 43.742188 285.832031 42.039062 283.414062 40.398438 280.953125 C 38.757812 278.496094 37.179688 275.996094 35.660156 273.460938 C 34.140625 270.921875 32.6875 268.351562 31.292969 265.742188 C 29.902344 263.132812 28.578125 260.492188 27.316406 257.816406 C 26.054688 255.144531 24.859375 252.441406 23.730469 249.707031 C 22.601562 246.976562 21.539062 244.214844 20.546875 241.429688 C 19.554688 238.644531 18.632812 235.839844 17.777344 233.007812 C 16.921875 230.175781 16.136719 227.328125 15.421875 224.457031 C 14.710938 221.589844 14.066406 218.703125 13.492188 215.804688 C 12.921875 212.902344 12.421875 209.992188 11.992188 207.066406 C 11.5625 204.140625 11.207031 201.207031 10.921875 198.261719 C 10.640625 195.320312 10.425781 192.371094 10.289062 189.417969 C 10.148438 186.464844 10.082031 183.507812 10.089844 180.554688 C 10.09375 177.597656 10.175781 174.640625 10.324219 171.6875 C 10.476562 168.738281 10.703125 165.789062 11 162.847656 C 11.296875 159.90625 11.664062 156.972656 12.105469 154.050781 C 12.546875 151.125 13.058594 148.214844 13.644531 145.316406 C 14.230469 142.417969 14.882812 139.535156 15.609375 136.671875 C 16.335938 133.804688 17.132812 130.957031 18 128.132812 C 18.867188 125.304688 19.800781 122.5 20.808594 119.71875 C 21.8125 116.9375 22.882812 114.183594 24.023438 111.457031 C 25.164062 108.730469 26.371094 106.03125 27.644531 103.363281 C 28.917969 100.695312 30.253906 98.058594 31.65625 95.457031 C 33.0625 92.851562 34.527344 90.285156 36.054688 87.757812 C 37.585938 85.226562 39.175781 82.734375 40.828125 80.28125 C 42.480469 77.828125 44.191406 75.417969 45.960938 73.050781 C 47.730469 70.683594 49.558594 68.359375 51.445312 66.082031 C 53.328125 63.804688 55.269531 61.574219 57.261719 59.390625 C 59.257812 57.210938 61.304688 55.078125 63.402344 52.996094 C 65.503906 50.914062 67.652344 48.886719 69.851562 46.910156 C 72.050781 44.933594 74.296875 43.011719 76.59375 41.148438 C 78.886719 39.28125 81.226562 37.472656 83.609375 35.722656 C 85.992188 33.972656 88.414062 32.285156 90.882812 30.652344 C 93.347656 29.023438 95.851562 27.453125 98.394531 25.945312 C 100.941406 24.4375 103.519531 22.992188 106.132812 21.613281 C 108.746094 20.234375 111.394531 18.917969 114.074219 17.667969 C 116.753906 16.417969 119.460938 15.234375 122.199219 14.117188 C 124.9375 13 127.699219 11.953125 130.488281 10.96875 C 133.277344 9.988281 136.089844 9.078125 138.925781 8.234375 C 141.757812 7.394531 144.613281 6.621094 147.484375 5.917969 C 150.355469 5.21875 153.242188 4.585938 156.144531 4.027344 C 159.050781 3.464844 161.964844 2.980469 164.890625 2.5625 C 167.820312 2.144531 170.753906 1.800781 173.699219 1.53125 C 176.644531 1.257812 179.59375 1.058594 182.546875 0.933594 C 185.5 0.804688 188.457031 0.753906 191.410156 0.773438 C 194.335938 0.789062 197.257812 0.878906 200.179688 1.042969 C 203.097656 1.203125 206.011719 1.433594 208.921875 1.738281 C 211.832031 2.039062 214.730469 2.414062 217.621094 2.859375 C 220.511719 3.300781 223.390625 3.816406 226.253906 4.402344 C 229.121094 4.984375 231.972656 5.640625 234.804688 6.363281 C 237.636719 7.085938 240.453125 7.875 243.25 8.738281 C 246.042969 9.597656 248.816406 10.523438 251.566406 11.519531 C 254.316406 12.515625 257.039062 13.578125 259.738281 14.703125 C 262.4375 15.832031 265.105469 17.023438 267.746094 18.28125 C 270.386719 19.539062 272.996094 20.863281 275.570312 22.246094 C 278.148438 23.632812 280.6875 25.078125 283.191406 26.585938 C 285.699219 28.09375 288.164062 29.664062 290.59375 31.292969 C 293.023438 32.921875 295.410156 34.609375 297.757812 36.351562 C 300.105469 38.097656 302.410156 39.898438 304.667969 41.757812 C 306.925781 43.613281 309.140625 45.523438 311.304688 47.488281 C 313.472656 49.453125 315.589844 51.46875 317.65625 53.539062 C 319.726562 55.605469 321.742188 57.722656 323.707031 59.890625 C 325.671875 62.054688 327.582031 64.269531 329.441406 66.527344 C 331.296875 68.785156 333.097656 71.089844 334.84375 73.4375 C 336.585938 75.785156 338.273438 78.171875 339.902344 80.601562 C 341.53125 83.03125 343.101562 85.496094 344.609375 88.003906 C 346.117188 90.507812 347.5625 93.050781 348.949219 95.625 C 350.332031 98.199219 351.65625 100.808594 352.914062 103.449219 C 354.171875 106.089844 355.363281 108.757812 356.492188 111.457031 C 357.621094 114.15625 358.679688 116.878906 359.675781 119.628906 C 360.671875 122.378906 361.597656 125.152344 362.460938 127.949219 C 363.320312 130.742188 364.109375 133.558594 364.832031 136.390625 C 365.558594 139.226562 366.210938 142.074219 366.796875 144.941406 C 367.378906 147.804688 367.894531 150.683594 368.335938 153.574219 C 368.78125 156.464844 369.15625 159.363281 369.457031 162.273438 C 369.761719 165.183594 369.992188 168.097656 370.15625 171.015625 C 370.316406 173.9375 370.40625 176.859375 370.425781 179.785156 Z M 189.558594 107.40625 C 173.511719 108.640625 157.539062 109.566406 141.71875 111.265625 C 141.101562 111.265625 140.484375 111.296875 139.867188 111.355469 C 139.253906 111.414062 138.640625 111.503906 138.03125 111.617188 C 137.425781 111.734375 136.824219 111.878906 136.230469 112.054688 C 135.636719 112.226562 135.050781 112.425781 134.476562 112.65625 C 133.898438 112.882812 133.335938 113.136719 132.785156 113.417969 C 132.234375 113.699219 131.695312 114.003906 131.175781 114.335938 C 130.652344 114.667969 130.144531 115.023438 129.65625 115.402344 C 129.167969 115.78125 128.699219 116.183594 128.246094 116.605469 C 127.792969 117.027344 127.363281 117.472656 126.953125 117.9375 C 126.542969 118.398438 126.15625 118.882812 125.792969 119.382812 C 125.425781 119.882812 125.085938 120.398438 124.769531 120.929688 C 124.457031 121.460938 124.164062 122.007812 123.898438 122.566406 C 123.636719 123.125 123.398438 123.695312 123.1875 124.277344 C 122.976562 124.859375 122.792969 125.449219 122.636719 126.050781 C 122.480469 126.648438 122.351562 127.253906 122.253906 127.863281 C 122.15625 128.476562 122.085938 129.089844 122.042969 129.707031 C 119.132812 146.425781 117.675781 163.273438 117.675781 180.246094 C 117.675781 197.21875 119.132812 214.066406 122.042969 230.785156 C 122.125 232.003906 122.316406 233.207031 122.621094 234.390625 C 122.925781 235.570312 123.332031 236.71875 123.847656 237.824219 C 124.363281 238.929688 124.976562 239.980469 125.6875 240.972656 C 126.398438 241.96875 127.195312 242.886719 128.074219 243.730469 C 128.957031 244.578125 129.90625 245.335938 130.929688 246.003906 C 131.949219 246.671875 133.027344 247.242188 134.152344 247.714844 C 135.28125 248.183594 136.441406 248.546875 137.632812 248.800781 C 138.828125 249.054688 140.035156 249.199219 141.257812 249.226562 C 157.503906 251.949219 173.859375 253.308594 190.332031 253.308594 C 206.800781 253.308594 223.160156 251.949219 239.40625 249.226562 C 252.753906 247.066406 259.699219 240.816406 259.929688 228.394531 C 260.546875 196.605469 260.46875 164.738281 259.929688 133.023438 C 259.929688 118.59375 250.980469 111.574219 236.78125 110.492188 Z M 96.503906 230.863281 L 96.503906 127.699219 C 93.308594 127.832031 90.136719 128.171875 86.984375 128.722656 C 83.835938 129.269531 80.734375 130.023438 77.683594 130.980469 C 74.628906 131.9375 71.65625 133.089844 68.753906 134.4375 C 65.855469 135.785156 63.054688 137.320312 60.359375 139.035156 C 57.660156 140.753906 55.085938 142.636719 52.636719 144.695312 C 50.183594 146.75 47.878906 148.957031 45.71875 151.316406 C 43.5625 153.675781 41.566406 156.164062 39.734375 158.785156 C 37.902344 161.40625 36.25 164.136719 34.777344 166.976562 C 33.933594 169.011719 33.285156 171.105469 32.824219 173.257812 C 32.363281 175.410156 32.097656 177.589844 32.03125 179.789062 C 31.96875 181.992188 32.101562 184.179688 32.429688 186.359375 C 32.761719 188.535156 33.285156 190.664062 34.003906 192.746094 C 40.410156 212.886719 70.734375 230.863281 96.503906 230.863281 Z M 138.941406 273.84375 C 142.105469 302.238281 156.457031 327.082031 174.820312 334.953125 C 178.878906 336.664062 183.09375 337.75 187.46875 338.207031 C 191.847656 338.667969 196.195312 338.484375 200.515625 337.652344 C 221.8125 332.714844 241.488281 300.847656 240.71875 273.84375 Z M 282 126.621094 C 282 160.648438 281.535156 191.125 282 221.605469 C 282 231.25 289.019531 235.800781 298.664062 232.175781 C 303.375 230.601562 307.925781 228.648438 312.3125 226.316406 C 316.699219 223.984375 320.859375 221.304688 324.800781 218.277344 C 328.738281 215.25 332.402344 211.917969 335.785156 208.28125 C 339.167969 204.644531 342.226562 200.753906 344.960938 196.605469 C 345.859375 195.386719 346.652344 194.101562 347.339844 192.753906 C 348.03125 191.40625 348.609375 190.007812 349.070312 188.566406 C 349.535156 187.125 349.882812 185.65625 350.105469 184.160156 C 350.332031 182.664062 350.4375 181.15625 350.421875 179.640625 C 350.402344 178.128906 350.265625 176.625 350.003906 175.132812 C 349.742188 173.640625 349.363281 172.179688 348.867188 170.75 C 348.371094 169.320312 347.761719 167.9375 347.042969 166.605469 C 346.324219 165.273438 345.5 164.007812 344.574219 162.808594 C 342.816406 160.234375 340.917969 157.769531 338.878906 155.40625 C 336.84375 153.046875 334.683594 150.808594 332.394531 148.6875 C 330.109375 146.566406 327.710938 144.582031 325.203125 142.730469 C 322.695312 140.878906 320.09375 139.171875 317.394531 137.613281 C 314.695312 136.050781 311.917969 134.644531 309.0625 133.394531 C 306.207031 132.144531 303.289062 131.058594 300.3125 130.132812 C 297.335938 129.207031 294.316406 128.453125 291.253906 127.863281 C 288.191406 127.277344 285.105469 126.863281 282 126.621094 Z M 242.722656 85.648438 C 237.863281 52.46875 215.71875 23.917969 194.34375 21.375 C 176.058594 18.671875 151.75 39.351562 140.792969 66.742188 C 134.390625 82.871094 138.402344 88.964844 155.53125 89.042969 C 180.378906 89.042969 205.222656 89.042969 229.992188 89.042969 C 234.378906 88.453125 238.625 87.324219 242.722656 85.648438 Z M 131.070312 35.261719 C 84.929688 52.160156 52.675781 86.496094 49.820312 119.675781 C 66.875 112.730469 83.464844 106.40625 99.589844 99.152344 C 101.800781 98.117188 103.78125 96.746094 105.527344 95.039062 C 107.273438 93.332031 108.691406 91.382812 109.777344 89.199219 C 116.796875 72.992188 122.816406 56.40625 131.070312 35.261719 Z M 253.835938 39.351562 C 269.265625 95.679688 280.609375 106.867188 332.460938 116.511719 C 323.894531 80.09375 287.863281 44.445312 253.835938 39.351562 Z M 127.214844 326.851562 C 119.5 272.839844 96.8125 250.464844 44.5 244.289062 C 46.492188 248.863281 48.695312 253.332031 51.109375 257.699219 C 53.523438 262.066406 56.136719 266.308594 58.949219 270.433594 C 61.761719 274.554688 64.761719 278.535156 67.945312 282.375 C 71.132812 286.214844 74.488281 289.894531 78.023438 293.421875 C 81.554688 296.945312 85.242188 300.296875 89.085938 303.476562 C 92.933594 306.652344 96.917969 309.644531 101.046875 312.449219 C 105.171875 315.253906 109.421875 317.859375 113.792969 320.265625 C 118.164062 322.671875 122.636719 324.867188 127.214844 326.851562 Z M 253.988281 326.851562 C 258.640625 324.886719 263.183594 322.695312 267.621094 320.285156 C 272.058594 317.871094 276.363281 315.246094 280.542969 312.410156 C 284.722656 309.578125 288.753906 306.542969 292.632812 303.3125 C 296.515625 300.082031 300.226562 296.667969 303.773438 293.074219 C 307.320312 289.476562 310.679688 285.71875 313.859375 281.792969 C 317.035156 277.867188 320.011719 273.792969 322.789062 269.578125 C 325.566406 265.359375 328.128906 261.015625 330.480469 256.546875 C 332.832031 252.074219 334.957031 247.503906 336.859375 242.824219 C 278.371094 255.941406 263.402344 271.21875 253.988281 326.773438 Z M 253.988281 326.851562 " fill-opacity="1" fill-rule="nonzero"/></svg>