<svg width="112" height="88" viewBox="0 0 112 88" fill="none" xmlns="http://www.w3.org/2000/svg">
<path d="M21.4547 6.54784C27.3267 0.675842 39.7547 2.86517 53.308 10.9838C50.476 12.8572 47.6387 14.9532 44.8307 17.2585C35.1587 18.2065 26.3987 20.3758 19.2333 23.4172C17.292 16.1732 17.8667 10.1358 21.4547 6.54784ZM90.3493 6.54784C93.9373 10.1358 94.512 16.1732 92.5693 23.4172C85.4053 20.3758 76.6453 18.2065 66.9733 17.2585C64.1653 14.9532 61.3267 12.8572 58.496 10.9838C72.0493 2.86517 84.4773 0.675842 90.3493 6.54784ZM101.721 51.5478C100.232 52.9052 98.4333 54.1825 96.376 55.3705C94.884 51.6772 92.94 47.8518 90.5627 43.9878C93.6907 38.9025 96.0773 33.8825 97.6547 29.1465C103.372 32.7572 106.733 37.1412 106.733 41.8718C106.733 42.7985 106.589 43.7105 106.34 44.6092C106.245 44.9465 106.136 45.2825 106.008 45.6172C105.836 46.0612 105.633 46.5012 105.403 46.9372C105.245 47.2358 105.076 47.5305 104.892 47.8238C104.651 48.2065 104.387 48.5852 104.101 48.9598C103.688 49.5012 103.243 50.0372 102.739 50.5598C102.417 50.8932 102.079 51.2225 101.721 51.5478ZM93.3427 78.4345C87.572 84.2052 75.472 82.1932 62.192 74.4198C63.7907 73.2532 65.3867 72.0198 66.9733 70.7172C68.86 70.5318 70.7133 70.3025 72.5253 70.0278C74.276 69.7625 75.9893 69.4558 77.6613 69.1118C79.3333 68.7665 80.964 68.3825 82.548 67.9625C86.508 66.9132 90.18 65.6372 93.488 64.1705C94.3253 63.7998 95.1307 63.4118 95.92 63.0172C97.4107 69.6132 96.6867 75.0905 93.3427 78.4345ZM18.4613 78.4345C15.116 75.0905 14.3933 69.6132 15.884 63.0172C16.6733 63.4118 17.4787 63.7998 18.3147 64.1705C19.6387 64.7572 21.02 65.3132 22.4547 65.8372C24.7507 66.6745 27.188 67.4238 29.7373 68.0838C31.172 68.4545 32.6373 68.8012 34.1427 69.1118C35.8147 69.4558 37.528 69.7625 39.2787 70.0278C40.94 70.2798 42.6373 70.4918 44.3627 70.6692C44.5187 70.6852 44.6733 70.7012 44.8307 70.7172C46.416 72.0198 48.012 73.2532 49.612 74.4198C36.332 82.1932 24.232 84.2052 18.4613 78.4345ZM55.9013 16.7225C53.8467 16.7225 51.82 16.7798 49.8227 16.8852C51.8547 15.3345 53.8867 13.9012 55.9013 12.5945C57.9173 13.9012 59.9493 15.3345 61.9813 16.8852C59.984 16.7798 57.9573 16.7225 55.9013 16.7225ZM75.1813 24.7078C73.728 23.2558 72.2547 21.8625 70.768 20.5252C78.7907 21.6012 85.972 23.5225 91.7667 26.0572C90.5267 29.7318 88.6973 33.6585 86.3333 37.6972C83.1227 33.2972 79.392 28.9185 75.1813 24.7078ZM25.4707 37.6972C23.1053 33.6585 21.2773 29.7318 20.0373 26.0572C25.832 23.5225 33.0133 21.6012 41.036 20.5252C39.5493 21.8625 38.0747 23.2545 36.6213 24.7078C32.4107 28.9185 28.6813 33.2972 25.4707 37.6972ZM70.1867 58.2732C68.2013 60.2598 66.1813 62.1318 64.1467 63.8945C61.4627 64.0865 58.7107 64.1905 55.9013 64.1905C53.0933 64.1905 50.3413 64.0865 47.656 63.8945C45.6227 62.1318 43.6027 60.2598 41.616 58.2732C35.7533 52.4105 30.8427 46.2585 27.0467 40.2758C30.3187 35.7198 34.2 31.1332 38.6227 26.7092C41.0307 24.3025 43.4853 22.0585 45.9587 19.9825C49.1747 19.7025 52.4987 19.5532 55.9013 19.5532C59.3053 19.5532 62.6293 19.7025 65.8453 19.9825C68.3173 22.0585 70.7733 24.3025 73.18 26.7092C77.604 31.1332 81.4853 35.7198 84.7573 40.2758C80.9613 46.2585 76.0507 52.4105 70.1867 58.2732ZM25.488 59.7572C23.5307 59.1145 21.6827 58.4105 19.9587 57.6532C19.2347 57.3358 18.5413 57.0052 17.8613 56.6692C19.1253 53.4412 20.8213 50.0478 22.8973 46.5825C26.4173 51.9025 30.7307 57.2452 35.7373 62.3625C32.08 61.6665 28.64 60.7918 25.488 59.7572ZM91.8453 57.6532C90.1213 58.4105 88.272 59.1145 86.316 59.7572C83.1627 60.7918 79.724 61.6665 76.0653 62.3625C81.072 57.2452 85.3853 51.9025 88.9067 46.5825C90.9827 50.0478 92.6773 53.4412 93.9413 56.6692C93.2627 57.0052 92.5693 57.3358 91.8453 57.6532ZM8.15467 49.5465C6.15867 47.1532 5.06933 44.5678 5.06933 41.8718C5.06933 37.1412 8.43067 32.7572 14.1493 29.1465C15.7267 33.8825 18.1133 38.9025 21.2413 43.9878C18.864 47.8518 16.92 51.6772 15.428 55.3705C13.3707 54.1838 11.572 52.9052 10.0827 51.5478C9.368 50.8972 8.724 50.2292 8.15467 49.5465ZM12.7653 61.3318C12.94 61.4345 13.1253 61.5318 13.3013 61.6332C10.804 70.8585 11.6133 78.7558 16.3733 83.5158C23.9893 91.1318 39.6267 88.6598 55.9013 78.6492C72.1773 88.6598 87.8147 91.1318 95.4307 83.5158C100.191 78.7558 101 70.8585 98.5013 61.6332C98.6787 61.5318 98.864 61.4345 99.0387 61.3318C102.456 59.3118 105.289 57.0478 107.411 54.6012C107.764 54.1932 108.097 53.7798 108.411 53.3625C109.039 52.5278 109.584 51.6732 110.043 50.8025C110.503 49.9305 110.876 49.0425 111.159 48.1412C111.441 47.2385 111.633 46.3212 111.731 45.3918C111.779 44.9265 111.803 44.4585 111.803 43.9878C111.803 37.2558 106.792 31.0985 98.5013 26.3425C101 17.1172 100.191 9.21984 95.4307 4.45985C87.8147 -3.15616 72.1773 -0.682823 55.9013 9.32784C39.6267 -0.682823 23.9893 -3.15616 16.3733 4.45985C11.6133 9.21984 10.804 17.1172 13.3013 26.3425C13.1253 26.4438 12.94 26.5412 12.7653 26.6438C11.0573 27.6545 9.49467 28.7252 8.09333 29.8492C6.22533 31.3492 4.64667 32.9425 3.392 34.6132C1.19867 37.5358 0 40.6945 0 43.9878C0 44.4585 0.0253337 44.9265 0.0733337 45.3918C0.169334 46.3212 0.361333 47.2385 0.644 48.1412C0.926666 49.0425 1.30133 49.9305 1.76 50.8025C2.22 51.6732 2.76533 52.5278 3.392 53.3625C3.86933 53.9972 4.40667 54.6172 4.97467 55.2278C7.024 57.4332 9.644 59.4865 12.7653 61.3318Z" fill="#85BBE2"/>
<path d="M55.9019 31.0622C50.2432 31.0622 45.6552 35.6489 45.6552 41.3089C45.6552 46.9662 50.2432 51.5542 55.9019 51.5542C61.5605 51.5542 66.1485 46.9662 66.1485 41.3089C66.1485 35.6489 61.5605 31.0622 55.9019 31.0622Z" fill="#D7D85E"/>
</svg>
