<svg width="107" height="107" viewBox="0 0 107 107" fill="none" xmlns="http://www.w3.org/2000/svg">
<g filter="url(#filter0_i_1_5)">
<path d="M78.492 58.1867L77.8187 61.78C76.3053 69.8667 69.98 76.192 61.8933 77.7067L58.244 78.3893C54.896 79.016 51.4613 79.016 48.1133 78.3893L44.464 77.7067C36.3773 76.192 30.052 69.8667 28.5387 61.78L27.8653 58.1867C27.2387 54.84 27.2387 51.4053 27.8653 48.0573L28.5387 44.464C30.052 36.3773 36.3773 30.052 44.464 28.5373L48.1133 27.8547C51.4613 27.228 54.896 27.228 58.244 27.8547L61.8933 28.5373C69.98 30.052 76.3053 36.3773 77.8187 44.464L78.492 48.0573C79.1187 51.4053 79.1187 54.84 78.492 58.1867ZM81.2547 44.464C82.7693 36.3773 89.0947 30.052 97.1813 28.5373L106.357 26.82L97.1813 25.1027C89.0947 23.588 82.7693 17.2627 81.2547 9.17601L79.5373 3.7895e-06L77.8187 9.17601C76.3053 17.2627 69.98 23.588 61.8933 25.1027L58.244 25.7853C54.896 26.412 51.4613 26.412 48.1133 25.7853L44.464 25.1027C36.3773 23.588 30.052 17.2627 28.5387 9.17601L26.82 3.7895e-06L25.1027 9.17601C23.588 17.2627 17.2627 23.588 9.176 25.1027L0 26.82L9.176 28.5373C17.2627 30.052 23.588 36.3773 25.1027 44.464L25.7747 48.0573C26.4013 51.4053 26.4013 54.84 25.7747 58.1867L25.1027 61.78C23.588 69.8667 17.2627 76.192 9.176 77.7067L0 79.424L9.176 81.1427C17.2627 82.656 23.588 88.9813 25.1027 97.068L26.82 106.244L28.5387 97.068C30.052 88.9827 36.3773 82.656 44.464 81.1427L48.1133 80.4587C51.4613 79.832 54.896 79.832 58.244 80.4587L61.8933 81.1427C69.98 82.656 76.3053 88.9827 77.8187 97.0693L79.5373 106.244L81.2547 97.068C82.7693 88.9813 89.0947 82.656 97.1813 81.1427L106.357 79.424L97.1813 77.7067C89.0947 76.192 82.7693 69.8667 81.2547 61.78L80.5827 58.1867C79.956 54.84 79.956 51.4053 80.5827 48.0573L81.2547 44.464Z" fill="#A4B968"/>
</g>
<defs>
<filter id="filter0_i_1_5" x="0" y="0" width="106.357" height="110.244" filterUnits="userSpaceOnUse" color-interpolation-filters="sRGB">
<feFlood flood-opacity="0" result="BackgroundImageFix"/>
<feBlend mode="normal" in="SourceGraphic" in2="BackgroundImageFix" result="shape"/>
<feColorMatrix in="SourceAlpha" type="matrix" values="0 0 0 0 0 0 0 0 0 0 0 0 0 0 0 0 0 0 127 0" result="hardAlpha"/>
<feOffset dy="4"/>
<feGaussianBlur stdDeviation="2.3"/>
<feComposite in2="hardAlpha" operator="arithmetic" k2="-1" k3="1"/>
<feColorMatrix type="matrix" values="0 0 0 0 0.995192 0 0 0 0 0.943758 0 0 0 0 0.377982 0 0 0 0.25 0"/>
<feBlend mode="normal" in2="shape" result="effect1_innerShadow_1_5"/>
</filter>
</defs>
</svg>
