<svg xmlns="http://www.w3.org/2000/svg" xmlns:xlink="http://www.w3.org/1999/xlink" width="500" zoomAndPan="magnify" viewBox="0 0 375 374.999991" height="500" preserveAspectRatio="xMidYMid meet" version="1.0"><path fill="#000000" d="M 185.902344 374.808594 C 178.238281 368.996094 169.039062 365.160156 164.949219 358.261719 C 156.570312 344.128906 149.925781 329.222656 145.015625 313.542969 C 140.035156 296.027344 136.5 278.226562 134.414062 260.136719 C 132.625 246.210938 125.722656 240.652344 112.4375 237.96875 C 85.859375 232.472656 59.285156 226.339844 33.347656 218.355469 C 18.398438 213.5 1.535156 206.027344 0.640625 187.882812 C -0.253906 167.695312 17.953125 160.222656 33.15625 154.917969 C 57.558594 147.304688 82.300781 141.042969 107.390625 136.136719 C 130.195312 131.21875 129.8125 131.21875 134.730469 108.285156 C 140.097656 82.363281 146.847656 56.808594 154.984375 31.621094 C 159.902344 16.992188 168.078125 0.382812 186.925781 1.277344 C 203.726562 2.042969 211.839844 17.632812 216.3125 31.6875 C 224.234375 57.941406 230.621094 84.648438 237.011719 110.902344 C 241.800781 131.539062 241.289062 131.347656 261.542969 135.816406 C 285.691406 141.121094 309.964844 146.230469 333.601562 153.386719 C 339.070312 155.230469 344.289062 157.617188 349.261719 160.542969 C 354.234375 163.46875 358.851562 166.875 363.117188 170.761719 C 375 181.113281 375.0625 192.355469 363.117188 202.703125 C 358.449219 206.804688 353.425781 210.410156 348.050781 213.527344 C 342.675781 216.644531 337.050781 219.214844 331.175781 221.230469 C 309.878906 227.820312 288.261719 233.125 266.332031 237.136719 C 240.78125 242.058594 241.417969 241.480469 235.796875 267.355469 C 230.621094 290.609375 224.9375 313.863281 217.84375 336.667969 C 214.460938 346.089844 209.519531 354.609375 203.023438 362.222656 C 197.886719 367.191406 192.179688 371.386719 185.902344 374.808594 Z M 185.136719 233.113281 C 192.546875 233.113281 200.019531 233.113281 207.433594 233.113281 C 225.765625 232.21875 231.003906 227.875 232.089844 209.539062 C 233.050781 193.121094 232.089844 176.511719 232.089844 160.03125 C 232.128906 159.40625 232.132812 158.78125 232.105469 158.15625 C 232.082031 157.53125 232.019531 156.910156 231.929688 156.292969 C 231.839844 155.675781 231.714844 155.0625 231.558594 154.457031 C 231.40625 153.851562 231.21875 153.257812 231.003906 152.671875 C 230.785156 152.085938 230.539062 151.511719 230.265625 150.949219 C 229.988281 150.390625 229.683594 149.84375 229.351562 149.316406 C 229.019531 148.785156 228.660156 148.277344 228.273438 147.785156 C 227.886719 147.292969 227.476562 146.820312 227.042969 146.371094 C 226.609375 145.921875 226.152344 145.496094 225.675781 145.09375 C 225.195312 144.691406 224.699219 144.316406 224.179688 143.964844 C 223.664062 143.617188 223.128906 143.292969 222.578125 143 C 222.027344 142.703125 221.460938 142.4375 220.882812 142.203125 C 220.304688 141.964844 219.714844 141.757812 219.117188 141.582031 C 218.515625 141.410156 217.910156 141.265625 217.292969 141.152344 C 216.679688 141.039062 216.058594 140.960938 215.4375 140.910156 C 214.8125 140.863281 214.191406 140.847656 213.566406 140.863281 C 195.421875 140.097656 177.277344 140.097656 159.136719 140.863281 C 158.460938 140.832031 157.789062 140.835938 157.113281 140.871094 C 156.441406 140.910156 155.773438 140.984375 155.105469 141.09375 C 154.441406 141.203125 153.78125 141.34375 153.132812 141.523438 C 152.480469 141.703125 151.84375 141.914062 151.214844 142.160156 C 150.585938 142.40625 149.972656 142.683594 149.375 142.992188 C 148.773438 143.304688 148.195312 143.644531 147.632812 144.015625 C 147.070312 144.390625 146.527344 144.789062 146.007812 145.21875 C 145.484375 145.648438 144.988281 146.101562 144.515625 146.582031 C 144.046875 147.066406 143.597656 147.570312 143.179688 148.097656 C 142.761719 148.628906 142.371094 149.175781 142.011719 149.746094 C 141.648438 150.316406 141.320312 150.902344 141.019531 151.507812 C 140.71875 152.113281 140.453125 152.730469 140.21875 153.363281 C 139.984375 153.996094 139.785156 154.640625 139.621094 155.292969 C 139.453125 155.945312 139.324219 156.605469 139.226562 157.273438 C 139.132812 157.941406 139.070312 158.613281 139.046875 159.285156 C 139.019531 159.960938 139.03125 160.632812 139.074219 161.308594 C 139.074219 176.960938 138.375 192.675781 139.074219 208.328125 C 139.84375 227.492188 145.464844 232.15625 165.203125 232.984375 C 171.785156 233.367188 178.363281 233.175781 185.007812 233.113281 Z M 224.234375 130.386719 C 226.53125 106.113281 215.546875 69.761719 202.128906 55.386719 C 190.820312 43.25 178.8125 42.609375 168.589844 55.769531 C 151.789062 77.109375 146.167969 102.34375 143.355469 130.386719 Z M 241.867188 229.472656 C 270.359375 225.191406 294.507812 220.082031 314.820312 204.8125 C 329.640625 193.632812 330.410156 180.917969 316.546875 169.933594 C 295.335938 153.128906 270.167969 147.507812 242.058594 144.761719 Z M 127.832031 228.640625 L 127.832031 145.59375 C 121.761719 145.746094 115.730469 146.308594 109.734375 147.277344 C 103.742188 148.242188 97.835938 149.605469 92.027344 151.363281 C 86.214844 153.121094 80.546875 155.261719 75.023438 157.78125 C 69.496094 160.304688 64.167969 163.183594 59.027344 166.417969 C 39.863281 179.195312 39.863281 194.273438 59.414062 207.175781 C 64.582031 210.332031 69.929688 213.160156 75.445312 215.664062 C 80.964844 218.164062 86.617188 220.320312 92.398438 222.128906 C 98.179688 223.9375 104.050781 225.386719 110.011719 226.476562 C 115.972656 227.566406 121.976562 228.289062 128.023438 228.640625 Z M 145.847656 243.589844 C 144.507812 267.800781 154.601562 301.085938 167.375 316.289062 C 180.152344 331.496094 191.140625 331.621094 202.257812 317.375 C 218.738281 296.101562 225.128906 271.1875 226.46875 243.589844 Z M 145.847656 243.589844 " fill-opacity="1" fill-rule="nonzero"/></svg>