<svg width="1520" height="1539" viewBox="0 0 1520 1539" fill="none" xmlns="http://www.w3.org/2000/svg">
<path d="M675.843 38.9658C696.274 14.8975 723.768 -1.19129 762.137 0.641602H762.138C796.327 2.20989 821.682 18.9522 840.789 42.543C859.906 66.1463 872.754 96.5916 881.895 125.502C914.294 233.578 940.416 343.52 966.558 451.616V451.617C971.452 472.847 975 488.756 978.861 500.942C982.724 513.134 986.917 521.662 993.137 528.105C999.358 534.551 1007.56 538.866 1019.36 542.719C1029.68 546.088 1042.78 549.117 1059.77 552.901L1067.29 554.573C1166.07 576.415 1265.34 597.446 1362 626.901H1362C1384.34 634.482 1405.66 644.293 1425.97 656.322C1445.64 667.975 1463.96 681.482 1480.92 696.843L1482.56 698.335L1482.57 698.342C1506.82 719.599 1518.92 741.701 1518.95 763.729C1518.98 785.757 1506.94 807.854 1482.57 829.103L1482.57 829.105C1463.5 845.971 1442.98 860.797 1421.02 873.615C1399.06 886.432 1376.08 896.998 1352.08 905.286C1264.99 932.412 1176.58 954.249 1086.89 970.763L1086.89 970.764C1060.77 975.828 1041.31 979.483 1026.47 983.782C1011.62 988.083 1001.33 993.045 993.604 1000.76C985.875 1008.47 980.749 1018.89 976.117 1033.99C971.487 1049.09 967.332 1068.95 961.587 1095.57C940.417 1191.3 917.171 1287.03 888.16 1380.9C874.346 1419.62 854.169 1454.64 827.646 1485.93C806.747 1506.27 783.538 1523.46 758.017 1537.5C742.401 1525.62 725.201 1515.69 709.916 1505.29C694.51 1494.81 680.998 1483.81 672.692 1469.71C638.972 1412.47 612.122 1352.13 592.144 1288.72L591.197 1285.7C570.833 1213.61 556.378 1140.35 547.849 1065.9V1065.89L547.673 1064.55C543.9 1036.52 535.027 1016.75 520.386 1002.6C505.521 988.234 484.768 979.723 457.555 974.19H457.556C348.842 951.563 240.156 926.317 134.078 893.45H134.079C103.512 883.457 71.0468 870.788 45.7715 851.314C20.5144 831.854 2.44986 805.611 0.628906 768.435C-1.19155 727.063 16.4201 698.737 42.2539 678.007C68.1155 657.255 102.207 644.126 133.306 633.204L133.305 633.203C233.104 601.864 334.294 576.091 436.905 555.895L436.914 555.893C460.226 550.832 477.648 547.03 490.964 542.697C504.286 538.362 513.553 533.481 520.526 526.229C527.498 518.98 532.132 509.408 536.281 495.781C540.429 482.16 544.109 464.429 549.136 440.834L549.137 440.83C571.088 334.121 598.694 228.923 631.973 125.236C642.027 95.1339 655.394 63.0553 675.843 38.9658ZM593.624 997.797C590.88 1047.71 599.844 1106.95 616.024 1161.54C632.203 1216.12 655.614 1266.1 681.801 1297.47C707.961 1328.81 732.388 1344.73 756.064 1345.36C779.759 1345.99 802.5 1331.3 825.273 1301.93L825.274 1301.93C892.774 1214.23 918.933 1111.54 924.417 997.848L924.442 997.324H593.65L593.624 997.797ZM871.132 574.363C796.911 571.212 722.69 571.213 648.484 574.364C645.71 574.236 642.953 574.252 640.181 574.397H640.178C637.412 574.559 634.662 574.867 631.913 575.32H631.912C629.18 575.773 626.462 576.355 623.79 577.101C621.105 577.845 618.484 578.72 615.896 579.739C613.307 580.759 610.782 581.908 608.322 583.187H608.32C605.844 584.481 603.465 585.889 601.149 587.427L601.147 587.429C598.834 588.981 596.6 590.631 594.46 592.412C592.305 594.192 590.262 596.07 588.316 598.061L588.313 598.063C586.387 600.068 584.538 602.156 582.816 604.342L582.815 604.343C581.097 606.542 579.489 608.807 578.009 611.171C576.513 613.535 575.162 615.962 573.925 618.47C572.686 620.979 571.593 623.537 570.628 626.158C569.663 628.78 568.843 631.45 568.168 634.152C567.476 636.857 566.946 639.593 566.544 642.358L566.543 642.361C566.157 645.126 565.9 647.909 565.804 650.693C565.691 653.489 565.738 656.267 565.914 659.059C565.914 722.462 563.144 786.184 565.786 849.64L565.916 852.662C567.491 892.126 574.026 916.838 590.419 932.075C606.799 947.301 632.905 952.951 673.271 954.656V954.657C698.533 956.136 723.786 955.535 749.229 955.242L754.319 955.188H846.063L846.075 955.188C883.57 953.346 907.848 947.956 923.279 933.451C938.718 918.939 945.188 895.414 947.41 857.655V857.654C951.342 790.043 947.412 721.608 947.411 653.797C947.551 651.535 947.581 649.275 947.511 647.015L947.475 646.044C947.378 643.451 947.12 640.877 946.751 638.322C946.427 636.082 945.993 633.855 945.458 631.652L945.223 630.71C944.595 628.199 943.822 625.739 942.938 623.313L942.938 623.311L942.595 622.402C941.782 620.289 940.884 618.213 939.899 616.174L939.897 616.17C938.756 613.856 937.501 611.59 936.134 609.403C934.766 607.2 933.285 605.096 931.693 603.057C930.102 601.017 928.413 599.059 926.627 597.196C924.841 595.334 922.959 593.569 920.997 591.901L920.996 591.9L920.251 591.28C918.506 589.846 916.707 588.497 914.835 587.222L914.834 587.221C912.711 585.78 910.507 584.436 908.237 583.221C905.969 581.99 903.638 580.89 901.258 579.919H901.259C898.877 578.931 896.448 578.073 893.986 577.345L893.982 577.343C891.508 576.631 889.015 576.032 886.473 575.562H886.474C883.946 575.093 881.388 574.769 878.833 574.559H878.83C876.259 574.364 873.703 574.299 871.132 574.363ZM987.19 590.914L986.407 939.697L986.406 940.28L986.982 940.193C1103.54 922.566 1202.43 901.517 1285.64 838.563L1285.64 838.562C1316.01 815.504 1332.08 790.789 1333.37 766.085C1334.65 741.368 1321.13 716.835 1292.71 694.166C1205.83 624.884 1102.75 601.727 987.739 590.418L987.191 590.364L987.19 590.914ZM520.415 593.842C495.561 594.47 470.866 596.787 446.315 600.779C421.781 604.755 397.599 610.374 373.816 617.618C350.762 624.636 328.262 633.134 306.318 643.098L304.196 644.067C281.565 654.467 259.75 666.33 238.703 679.659L238.691 679.666C199.44 706.007 179.674 734.813 179.873 763.799C180.073 792.783 200.234 821.715 240.275 848.312L240.283 848.316L240.29 848.321C261.448 861.327 283.342 872.981 305.923 883.299H305.924C328.521 893.601 351.661 902.487 375.33 909.939C398.999 917.392 423.035 923.364 447.439 927.854C471.432 932.27 495.595 935.221 519.928 936.696V936.773H521.21L521.239 935.773C521.135 935.767 521.032 935.76 520.928 935.754V593.828L520.415 593.842ZM754.09 184.158C730.592 184.024 707.725 197.032 686.76 224.197C617.945 312.174 594.938 416.189 583.431 531.68L583.376 532.229H915.232L915.275 531.775C919.981 481.721 911.082 419.252 894.15 361.904C877.486 305.461 853.017 253.9 826.006 223.996L824.718 222.589C801.54 197.552 777.573 184.292 754.09 184.158Z" fill="url(#paint0_linear_5_4)" stroke="black"/>
<defs>
<linearGradient id="paint0_linear_5_4" x1="759.726" y1="0" x2="759.726" y2="1538.1" gradientUnits="userSpaceOnUse">
<stop stop-color="#8C9FED"/>
<stop offset="1" stop-color="#BFC568"/>
</linearGradient>
</defs>
</svg>
